<?xml version="1.0" encoding="UTF-8"?>
<svg id="Capa_1" data-name="Capa 1" xmlns="http://www.w3.org/2000/svg" viewBox="0 0 734 324.89">
  <defs>
    <style>
      .cls-1 {
        fill: #60b77a;
      }

      .cls-1, .cls-2, .cls-3, .cls-4, .cls-5, .cls-6 {
        stroke-width: 0px;
      }

      .cls-2 {
        fill: #1d1d1b;
      }

      .cls-3 {
        fill: #206b5d;
      }

      .cls-4 {
        fill: #da994c;
      }

      .cls-5 {
        fill: #fff;
      }

      .cls-6 {
        fill: #e9514e;
      }
    </style>
  </defs>
  <rect class="cls-5" x="256.62" y="76.89" width="112.82" height="73.37" rx="16.2" ry="16.2"/>
  <rect class="cls-5" x="375.1" y="76.89" width="112.82" height="73.37" rx="16.2" ry="16.2"/>
  <rect class="cls-5" x="494.15" y="76.89" width="112.82" height="73.37" rx="16.2" ry="16.2"/>
  <rect class="cls-5" x="613.36" y="76.89" width="112.82" height="73.37" rx="16.2" ry="16.2"/>
  <path class="cls-1" d="m313.03,95.15c-10.16,0-18.43,8.27-18.43,18.43s8.27,18.43,18.43,18.43,18.42-8.27,18.42-18.43-8.27-18.43-18.42-18.43Zm9.59,12.25l-11.91,14.17c-.13.16-.29.28-.48.37s-.38.13-.59.14h-.02c-.2,0-.39-.04-.58-.12-.18-.08-.34-.2-.48-.35l-5.1-5.67c-.13-.14-.23-.3-.3-.48-.07-.18-.1-.37-.09-.55,0-.19.05-.37.13-.54.08-.17.19-.32.33-.45.14-.13.3-.22.48-.29.18-.06.37-.09.56-.08.19.01.37.06.54.15.17.08.32.2.44.35l4.01,4.46,10.86-12.93c.24-.28.59-.46.96-.49.37-.03.74.09,1.02.33.29.24.46.58.5.95.03.37-.08.74-.31,1.03Z"/>
  <rect class="cls-5" x="256.62" y="13.06" width="112.82" height="58.22" rx="16.2" ry="16.2"/>
  <rect class="cls-5" x="7.82" y="76.89" width="242.58" height="73.37" rx="16.2" ry="16.2"/>
  <g>
    <rect class="cls-3" x="266.54" y="29.18" width="92.98" height="25.98"/>
    <g>
      <g>
        <path class="cls-5" d="m283.96,45.74l-.99-1.76-.76.96.02,2.33c0,.08-.06.14-.14.14h-2.02c-.08,0-.14-.06-.14-.14l.06-5.26-.06-5.26c0-.08.06-.14.14-.14h2.02c.08,0,.14.06.14.14l-.05,5.21v.48l2.3-2.87c.06-.06.15-.11.23-.11h2.27c.06,0,.08.06.05.11l-2.45,2.74,2.87,4.96c.03.06-.02.12-.08.12h-2.41c-.08,0-.17-.05-.2-.12l-.8-1.54Z"/>
        <path class="cls-5" d="m287.8,47.4c-.08,0-.14-.06-.14-.14l.05-3.67v-3.99c-.01-.08.05-.14.12-.14h1.96c.08,0,.14.06.14.14l-.05.86c.54-.69,1.45-1.19,2.56-1.19,1.68,0,2.76,1.14,2.76,3.08v1.67l.05,3.24c0,.08-.06.14-.14.14h-2.07c-.08,0-.14-.06-.14-.14l.03-3.24v-1.63c0-.86-.51-1.42-1.2-1.42-.83,0-1.73.77-1.73,2.47v.59l.03,3.24c0,.08-.06.14-.14.14h-2.1Z"/>
        <path class="cls-5" d="m299.79,47.6c-2.59,0-4.09-1.62-4.09-4.15s1.5-4.19,4.09-4.19,4.05,1.62,4.05,4.15-1.46,4.19-4.05,4.19Zm0-1.54c1.14,0,1.68-.79,1.68-2.61s-.56-2.65-1.7-2.65c-1.17.02-1.71.88-1.71,2.67s.57,2.59,1.73,2.59Z"/>
        <path class="cls-5" d="m310.68,47.4c-.08,0-.15-.06-.17-.14l-1.25-5.83-1.08,5.83c-.02.08-.09.14-.17.14h-2.44c-.08,0-.15-.06-.17-.14l-1.7-7.66c-.02-.08.05-.14.11-.14h2.05c.08,0,.15.06.15.14l.89,5.84,1.09-5.84c.02-.08.09-.14.17-.14h2.51c.08,0,.15.06.17.14l1.05,5.74.94-5.74c0-.08.08-.14.15-.14h1.87c.08,0,.12.06.11.14l-1.68,7.66c-.02.08-.09.14-.17.14h-2.45Z"/>
        <path class="cls-5" d="m322.6,44.72c.08,0,.14.06.12.14-.2,1.45-1.59,2.74-3.81,2.74-2.65,0-4.09-1.74-4.09-4.15,0-2.53,1.51-4.19,4.04-4.19s4.06,1.73,4.1,4.5c0,.08-.06.14-.14.14h-5.67c.09,1.5.68,2.16,1.79,2.16.77,0,1.33-.35,1.54-1.2.02-.08.09-.14.17-.14h1.94Zm-3.72-3.93c-.92,0-1.48.56-1.67,1.65h3.25c-.09-.85-.57-1.65-1.59-1.65Z"/>
        <path class="cls-5" d="m329.21,47.4c-.08,0-.14-.06-.14-.14l.03-.79c-.56.68-1.34,1.08-2.34,1.08-2.25,0-3.44-1.79-3.44-4.1s1.33-4.15,3.48-4.15c.99,0,1.76.35,2.3,1l-.05-.71c0-.08.06-.14.14-.14h2.07c.08,0,.14.06.14.14l-.05,3.84.05,3.82c0,.08-.06.14-.14.14h-2.05Zm-1.8-1.39c1.13,0,1.73-.85,1.74-2.53.02-1.7-.59-2.62-1.7-2.64-1.17-.03-1.77.85-1.77,2.48,0,1.79.62,2.7,1.73,2.68Z"/>
        <path class="cls-5" d="m337.08,47.11c0,.08-.06.15-.12.18-.45.15-.96.26-1.45.26-1.34,0-2.62-.68-2.62-2.48l.02-3.98h-.89c-.08,0-.14-.06-.14-.14v-1.36c0-.08.06-.14.14-.14h.89l-.02-1.85c0-.08.06-.14.14-.14h2.05c.08,0,.14.06.14.14l-.02,1.85h1.76c.08,0,.14.06.14.14v1.36c0,.08-.06.14-.14.14h-1.77l.02,3.92c0,.68.34.89.85.89.37,0,.66-.06.89-.14.08-.02.14.05.14.11v1.23Z"/>
        <path class="cls-5" d="m341.25,47.59c-2.31,0-3.79-.94-3.87-2.71,0-.08.06-.14.14-.14h1.97c.08,0,.14.06.14.14.06.89.65,1.28,1.73,1.28.91,0,1.4-.35,1.4-.97,0-1.51-5.2-.05-5.2-3.38,0-1.65,1.33-2.53,3.47-2.53s3.48.83,3.62,2.5c.02.08-.05.14-.12.14h-1.88c-.08,0-.14-.06-.15-.14-.12-.68-.56-1.09-1.5-1.09-.76,0-1.23.28-1.23.96,0,1.51,5.2-.03,5.2,3.35,0,1.67-1.57,2.61-3.72,2.61Z"/>
      </g>
      <path class="cls-5" d="m346.86,47.58c-.66.09-1.31-.24-1.4-.91s.41-1.35,1.22-1.46c.77-.11,1.31.29,1.41.94s-.43,1.32-1.22,1.43Zm1.62-8.62c-.22,1.27-.78,2.86-1.26,4.78-.04.19-.1.36-.35.4-.16.02-.29-.11-.37-.27-.23-.46-.52-1.6-.7-2.83-.12-.83-.19-1.72-.16-2.43.03-.95.38-1.85,1.38-2,.92-.13,1.44.44,1.55,1.17.04.31,0,.71-.08,1.17Z"/>
    </g>
  </g>
  <path class="cls-6" d="m431.51,95.16c-10.16,0-18.42,8.27-18.42,18.43s8.27,18.43,18.42,18.43,18.43-8.27,18.43-18.43-8.27-18.43-18.43-18.43Zm6.67,23.09c.14.13.25.29.32.46.08.17.12.36.12.55,0,.19-.03.38-.1.55-.07.18-.18.33-.31.47-.13.13-.29.24-.47.31-.18.07-.36.11-.55.1-.19,0-.38-.04-.55-.12-.17-.08-.33-.19-.46-.32l-4.67-4.67-4.67,4.67c-.27.25-.63.39-.99.39-.37,0-.72-.15-.98-.42-.26-.26-.41-.61-.42-.98,0-.37.14-.73.39-.99l4.67-4.67-4.67-4.67c-.25-.27-.39-.63-.39-.99,0-.37.15-.72.42-.98.26-.26.61-.41.98-.42.37,0,.73.14.99.39l4.67,4.67,4.67-4.67c.27-.25.62-.39.99-.39.37,0,.72.15.98.42.26.26.41.61.41.98,0,.37-.13.73-.39.99l-4.67,4.67,4.67,4.67Z"/>
  <rect class="cls-5" x="375.1" y="13.06" width="112.82" height="58.22" rx="16.2" ry="16.2"/>
  <rect class="cls-5" x="493.86" y="13.06" width="112.82" height="58.22" rx="16.2" ry="16.2"/>
  <rect class="cls-5" x="613.19" y="13.06" width="112.82" height="58.22" rx="16.2" ry="16.2"/>
  <path class="cls-1" d="m550.56,95.16c-10.16,0-18.42,8.27-18.42,18.43s8.27,18.43,18.42,18.43,18.43-8.27,18.43-18.43-8.27-18.43-18.43-18.43Zm9.59,12.25l-11.91,14.17c-.13.16-.29.28-.48.37s-.38.13-.59.14h-.02c-.2,0-.4-.04-.58-.12-.18-.08-.34-.2-.48-.35l-5.1-5.67c-.13-.14-.23-.3-.3-.48-.07-.18-.1-.37-.09-.55,0-.19.05-.37.13-.54.08-.17.19-.32.33-.45.14-.13.3-.22.48-.29.18-.06.37-.09.56-.08.19.01.37.06.54.15.17.08.32.2.44.35l4.01,4.46,10.86-12.93c.24-.28.59-.46.96-.49.37-.03.74.09,1.02.33.28.24.46.58.5.95.03.37-.08.74-.31,1.03Z"/>
  <path class="cls-6" d="m669.77,95.16c-10.16,0-18.42,8.27-18.42,18.43s8.26,18.43,18.42,18.43,18.43-8.27,18.43-18.43-8.27-18.43-18.43-18.43Zm6.67,23.09c.14.13.24.29.32.46.08.17.12.36.12.55,0,.19-.03.38-.1.55-.07.18-.18.33-.31.47-.14.13-.29.24-.47.31-.17.07-.37.11-.55.1s-.37-.04-.55-.12c-.17-.08-.33-.19-.46-.32l-4.67-4.67-4.67,4.67c-.27.25-.62.39-.99.39-.37,0-.72-.15-.98-.42-.26-.26-.41-.61-.42-.98,0-.37.14-.73.39-.99l4.67-4.67-4.67-4.67c-.26-.27-.4-.63-.39-.99,0-.37.16-.72.42-.98.26-.26.61-.41.98-.42.37,0,.72.14.99.39l4.67,4.67,4.67-4.67c.27-.25.62-.39,1-.39.37,0,.72.15.98.42.26.26.41.61.41.98s-.13.73-.39.99l-4.67,4.67,4.67,4.67Z"/>
  <rect class="cls-5" x="256.62" y="157.68" width="112.82" height="73.37" rx="16.2" ry="16.2"/>
  <rect class="cls-5" x="375.1" y="157.68" width="112.82" height="73.37" rx="16.2" ry="16.2"/>
  <rect class="cls-5" x="494.15" y="157.68" width="112.82" height="73.37" rx="16.2" ry="16.2"/>
  <rect class="cls-5" x="613.36" y="157.68" width="112.82" height="73.37" rx="16.2" ry="16.2"/>
  <path class="cls-1" d="m313.03,175.94c-10.16,0-18.43,8.27-18.43,18.43s8.27,18.43,18.43,18.43,18.42-8.27,18.42-18.43-8.27-18.43-18.42-18.43Zm9.59,12.25l-11.91,14.17c-.13.16-.29.28-.48.37s-.38.13-.59.14h-.02c-.2,0-.39-.04-.58-.12-.18-.08-.34-.2-.48-.35l-5.1-5.67c-.13-.14-.23-.3-.3-.48-.07-.18-.1-.37-.09-.55,0-.19.05-.37.13-.54.08-.17.19-.32.33-.45.14-.13.3-.22.48-.29.18-.06.37-.09.56-.08.19.01.37.06.54.15.17.08.32.2.44.35l4.01,4.46,10.86-12.93c.24-.28.59-.46.96-.49.37-.03.74.09,1.02.33.29.24.46.58.5.95.03.37-.08.74-.31,1.03Z"/>
  <path class="cls-1" d="m431.55,175.94c-10.16,0-18.43,8.27-18.43,18.43s8.27,18.43,18.43,18.43,18.42-8.27,18.42-18.43-8.27-18.43-18.42-18.43Zm9.59,12.25l-11.91,14.17c-.13.16-.29.28-.48.37s-.38.13-.59.14h-.02c-.2,0-.39-.04-.58-.12-.18-.08-.34-.2-.48-.35l-5.1-5.67c-.13-.14-.23-.3-.3-.48-.07-.18-.1-.37-.09-.55,0-.19.05-.37.13-.54.08-.17.19-.32.33-.45.14-.13.3-.22.48-.29.18-.06.37-.09.56-.08.19.01.37.06.54.15.17.08.32.2.44.35l4.01,4.46,10.86-12.93c.24-.28.59-.46.96-.49.37-.03.74.09,1.02.33.29.24.46.58.5.95.03.37-.08.74-.31,1.03Z"/>
  <path class="cls-6" d="m669.77,175.95c-10.16,0-18.42,8.27-18.42,18.43s8.26,18.43,18.42,18.43,18.43-8.27,18.43-18.43-8.27-18.43-18.43-18.43Zm6.67,23.09c.14.13.24.29.32.46.08.17.12.36.12.55,0,.19-.03.38-.1.55-.07.18-.18.33-.31.47-.14.13-.29.24-.47.31-.17.07-.37.11-.55.1s-.37-.04-.55-.12c-.17-.08-.33-.19-.46-.32l-4.67-4.67-4.67,4.67c-.27.25-.62.39-.99.39-.37,0-.72-.15-.98-.42-.26-.26-.41-.61-.42-.98,0-.37.14-.73.39-.99l4.67-4.67-4.67-4.67c-.26-.27-.4-.63-.39-.99,0-.37.16-.72.42-.98.26-.26.61-.41.98-.42.37,0,.72.14.99.39l4.67,4.67,4.67-4.67c.27-.25.62-.39,1-.39.37,0,.72.15.98.42.26.26.41.61.41.98s-.13.73-.39.99l-4.67,4.67,4.67,4.67Z"/>
  <rect class="cls-5" x="256.62" y="238.47" width="112.82" height="73.37" rx="16.2" ry="16.2"/>
  <rect class="cls-5" x="375.1" y="238.47" width="112.82" height="73.37" rx="16.2" ry="16.2"/>
  <rect class="cls-5" x="494.15" y="238.47" width="112.82" height="73.37" rx="16.2" ry="16.2"/>
  <rect class="cls-5" x="613.19" y="238.47" width="112.82" height="73.37" rx="16.2" ry="16.2"/>
  <path class="cls-1" d="m313.03,256.73c-10.16,0-18.43,8.27-18.43,18.43s8.27,18.43,18.43,18.43,18.42-8.27,18.42-18.43-8.27-18.43-18.42-18.43Zm9.59,12.25l-11.91,14.17c-.13.16-.29.28-.48.37s-.38.13-.59.14h-.02c-.2,0-.39-.04-.58-.12-.18-.08-.34-.2-.48-.35l-5.1-5.67c-.13-.14-.23-.3-.3-.48-.07-.18-.1-.37-.09-.55,0-.19.05-.37.13-.54.08-.17.19-.32.33-.45.14-.13.3-.22.48-.29.18-.06.37-.09.56-.08.19.01.37.06.54.15.17.08.32.2.44.35l4.01,4.46,10.86-12.93c.24-.28.59-.46.96-.49.37-.03.74.09,1.02.33.29.24.46.58.5.95.03.37-.08.74-.31,1.03Z"/>
  <path class="cls-6" d="m550.64,175.95c-10.16,0-18.42,8.27-18.42,18.43s8.26,18.43,18.42,18.43,18.43-8.27,18.43-18.43-8.27-18.43-18.43-18.43Zm6.67,23.09c.14.13.24.29.32.46.08.17.12.36.12.55,0,.19-.03.38-.1.55-.07.18-.18.33-.31.47-.14.13-.29.24-.47.31-.17.07-.37.11-.55.1s-.37-.04-.55-.12c-.17-.08-.33-.19-.46-.32l-4.67-4.67-4.67,4.67c-.27.25-.62.39-.99.39-.37,0-.72-.15-.98-.42-.26-.26-.41-.61-.42-.98,0-.37.14-.73.39-.99l4.67-4.67-4.67-4.67c-.26-.27-.4-.63-.39-.99,0-.37.16-.72.42-.98.26-.26.61-.41.98-.42.37,0,.72.14.99.39l4.67,4.67,4.67-4.67c.27-.25.62-.39,1-.39.37,0,.72.15.98.42.26.26.41.61.41.98s-.13.73-.39.99l-4.67,4.67,4.67,4.67Z"/>
  <path class="cls-6" d="m550.64,256.74c-10.16,0-18.42,8.27-18.42,18.43s8.26,18.43,18.42,18.43,18.43-8.27,18.43-18.43-8.27-18.43-18.43-18.43Zm6.67,23.09c.14.13.24.29.32.46.08.17.12.36.12.55,0,.19-.03.38-.1.55-.07.18-.18.33-.31.47-.14.13-.29.24-.47.31-.17.07-.37.11-.55.1s-.37-.04-.55-.12c-.17-.08-.33-.19-.46-.32l-4.67-4.67-4.67,4.67c-.27.25-.62.39-.99.39-.37,0-.72-.15-.98-.42-.26-.26-.41-.61-.42-.98,0-.37.14-.73.39-.99l4.67-4.67-4.67-4.67c-.26-.27-.4-.63-.39-.99,0-.37.16-.72.42-.98.26-.26.61-.41.98-.42.37,0,.72.14.99.39l4.67,4.67,4.67-4.67c.27-.25.62-.39,1-.39.37,0,.72.15.98.42.26.26.41.61.41.98s-.13.73-.39.99l-4.67,4.67,4.67,4.67Z"/>
  <g>
    <circle class="cls-4" cx="669.6" cy="275.15" r="18.43"/>
    <path class="cls-5" d="m663.63,271.31c0-.75.24-1.51.73-2.28.48-.78,1.18-1.42,2.11-1.92.92-.51,2-.76,3.23-.76,1.15,0,2.16.21,3.04.64.88.42,1.55.99,2.03,1.72.48.73.72,1.52.72,2.37,0,.67-.14,1.26-.42,1.77-.27.51-.59.95-.97,1.32-.37.36-1.05.98-2.02,1.85-.27.25-.49.46-.65.65-.16.18-.27.35-.36.51-.07.15-.14.3-.19.46-.04.15-.11.42-.19.81-.15.82-.62,1.23-1.41,1.23-.41,0-.76-.13-1.05-.4-.27-.27-.41-.67-.41-1.2,0-.66.1-1.24.31-1.72.21-.49.48-.92.82-1.28.34-.37.8-.81,1.38-1.32.51-.44.87-.78,1.1-1,.22-.23.42-.48.57-.76.16-.28.24-.58.24-.9,0-.63-.24-1.17-.71-1.6-.47-.43-1.07-.65-1.82-.65-.87,0-1.51.22-1.92.66-.41.44-.76,1.08-1.05,1.93-.27.89-.78,1.34-1.53,1.34-.44,0-.82-.15-1.13-.46-.3-.32-.45-.66-.45-1.02Zm5.8,13.01c-.49,0-.91-.15-1.27-.46-.36-.32-.54-.76-.54-1.32,0-.5.17-.92.52-1.26.35-.34.77-.51,1.28-.51s.92.17,1.26.51c.34.34.5.76.5,1.26,0,.55-.17.99-.53,1.3-.36.32-.77.47-1.23.47Z"/>
  </g>
  <g>
    <path class="cls-2" d="m40.18,97.07c0-2.96,2.27-5.07,5.32-5.07,1.69,0,3.11.62,4.03,1.74l-1.46,1.34c-.66-.76-1.48-1.15-2.47-1.15-1.83,0-3.14,1.29-3.14,3.14s1.3,3.14,3.14,3.14c.98,0,1.81-.39,2.47-1.16l1.46,1.34c-.92,1.13-2.34,1.75-4.05,1.75-3.04,0-5.31-2.12-5.31-5.07Z"/>
    <path class="cls-2" d="m50.08,98.2c0-2.27,1.75-3.88,4.15-3.88s4.13,1.61,4.13,3.88-1.74,3.88-4.13,3.88-4.15-1.61-4.15-3.88Zm6.07,0c0-1.3-.83-2.09-1.92-2.09s-1.93.78-1.93,2.09.84,2.09,1.93,2.09,1.92-.79,1.92-2.09Z"/>
    <path class="cls-2" d="m72.54,97.66v4.31h-2.19v-3.98c0-1.22-.55-1.78-1.43-1.78-.98,0-1.67.63-1.67,1.98v3.78h-2.19v-3.98c0-1.22-.52-1.78-1.43-1.78-.97,0-1.65.63-1.65,1.98v3.78h-2.19v-7.54h2.09v.87c.56-.64,1.4-.98,2.37-.98,1.05,0,1.95.41,2.48,1.23.6-.77,1.58-1.23,2.72-1.23,1.79,0,3.08,1.04,3.08,3.33Z"/>
    <path class="cls-2" d="m74.02,98.2c0-2.27,1.75-3.88,4.15-3.88s4.13,1.61,4.13,3.88-1.74,3.88-4.13,3.88-4.15-1.61-4.15-3.88Zm6.07,0c0-1.3-.83-2.09-1.92-2.09s-1.93.78-1.93,2.09.84,2.09,1.93,2.09,1.92-.79,1.92-2.09Z"/>
    <path class="cls-2" d="m91.42,91.58v10.39h-2.09v-.87c-.55.66-1.34.98-2.35.98-2.13,0-3.77-1.51-3.77-3.88s1.64-3.88,3.77-3.88c.92,0,1.71.29,2.26.91v-3.66h2.19Zm-2.14,6.62c0-1.3-.84-2.09-1.92-2.09s-1.93.78-1.93,2.09.84,2.09,1.93,2.09,1.92-.79,1.92-2.09Z"/>
    <path class="cls-2" d="m93.17,92.17c0-.69.55-1.22,1.36-1.22s1.36.5,1.36,1.18c0,.73-.55,1.26-1.36,1.26s-1.36-.53-1.36-1.22Zm.27,2.27h2.19v7.54h-2.19v-7.54Z"/>
    <path class="cls-2" d="m105.33,91.58v10.39h-2.09v-.87c-.55.66-1.34.98-2.35.98-2.13,0-3.77-1.51-3.77-3.88s1.64-3.88,3.77-3.88c.92,0,1.71.29,2.26.91v-3.66h2.19Zm-2.14,6.62c0-1.3-.84-2.09-1.92-2.09s-1.93.78-1.93,2.09.84,2.09,1.93,2.09,1.92-.79,1.92-2.09Z"/>
    <path class="cls-2" d="m114.01,97.67v4.3h-2.05v-.94c-.41.69-1.19,1.05-2.3,1.05-1.77,0-2.82-.98-2.82-2.28s.94-2.25,3.24-2.25h1.74c0-.94-.56-1.48-1.74-1.48-.8,0-1.62.27-2.17.7l-.78-1.53c.83-.59,2.05-.91,3.25-.91,2.3,0,3.63,1.06,3.63,3.35Zm-2.19,1.92v-.77h-1.5c-1.02,0-1.34.38-1.34.88,0,.55.46.91,1.23.91.73,0,1.36-.34,1.61-1.02Z"/>
    <path class="cls-2" d="m123.74,91.58v10.39h-2.09v-.87c-.55.66-1.34.98-2.35.98-2.13,0-3.77-1.51-3.77-3.88s1.64-3.88,3.77-3.88c.92,0,1.71.29,2.26.91v-3.66h2.19Zm-2.14,6.62c0-1.3-.84-2.09-1.92-2.09s-1.93.78-1.93,2.09.84,2.09,1.93,2.09,1.92-.79,1.92-2.09Z"/>
    <path class="cls-2" d="m126.98,101.27c0,.24-.06.42-.2.81l-.59,1.93h-.67l.48-2.03c-.29-.08-.5-.35-.5-.71,0-.43.32-.76.74-.76s.74.34.74.76Z"/>
    <path class="cls-2" d="m131.74,101.13l.45-.78c.59.46,1.58.83,2.62.83,1.4,0,1.98-.48,1.98-1.2,0-1.92-4.78-.41-4.78-3.32,0-1.2,1.04-2.1,2.91-2.1.95,0,1.99.27,2.61.69l-.43.8c-.64-.45-1.42-.63-2.17-.63-1.33,0-1.92.52-1.92,1.22,0,1.99,4.78.49,4.78,3.32,0,1.27-1.12,2.1-3.04,2.1-1.22,0-2.4-.39-3-.91Z"/>
    <path class="cls-2" d="m139.38,92.28c0-.38.32-.7.73-.7s.73.31.73.69c0,.41-.31.73-.73.73s-.73-.32-.73-.71Zm.22,2.33h.99v7.37h-.99v-7.37Z"/>
    <path class="cls-2" d="m150.15,97.7v4.27h-.99v-4.17c0-1.55-.81-2.35-2.21-2.35-1.58,0-2.58.98-2.58,2.66v3.87h-.99v-7.37h.95v1.36c.53-.9,1.53-1.41,2.8-1.41,1.79,0,3.03,1.04,3.03,3.15Z"/>
    <path class="cls-2" d="m163.99,98.29c0,2.24-1.57,3.75-3.67,3.75-1.18,0-2.19-.5-2.8-1.46v4.1h-.99v-10.08h.95v1.46c.6-.98,1.62-1.51,2.84-1.51,2.1,0,3.67,1.51,3.67,3.74Zm-.99,0c0-1.71-1.19-2.87-2.75-2.87s-2.75,1.16-2.75,2.87,1.18,2.87,2.75,2.87,2.75-1.15,2.75-2.87Z"/>
    <path class="cls-2" d="m169.72,94.55v.97c-.08,0-.17-.01-.24-.01-1.54,0-2.48.98-2.48,2.72v3.75h-.99v-7.37h.95v1.44c.46-.98,1.4-1.5,2.76-1.5Z"/>
    <path class="cls-2" d="m177.86,98.6h-6.16c.11,1.54,1.29,2.56,2.9,2.56.9,0,1.69-.32,2.25-.97l.56.64c-.66.78-1.68,1.2-2.84,1.2-2.3,0-3.87-1.57-3.87-3.75s1.53-3.74,3.6-3.74,3.57,1.53,3.57,3.74c0,.08-.01.2-.01.31Zm-6.16-.74h5.23c-.13-1.44-1.18-2.45-2.62-2.45s-2.48,1.01-2.61,2.45Z"/>
    <path class="cls-2" d="m187.37,98.29c0,2.24-1.57,3.75-3.67,3.75-1.18,0-2.19-.5-2.8-1.46v4.1h-.99v-10.08h.95v1.46c.6-.98,1.62-1.51,2.84-1.51,2.1,0,3.67,1.51,3.67,3.74Zm-.99,0c0-1.71-1.19-2.87-2.75-2.87s-2.75,1.16-2.75,2.87,1.18,2.87,2.75,2.87,2.75-1.15,2.75-2.87Z"/>
    <path class="cls-2" d="m194.91,97.41v4.57h-.95v-1.15c-.45.76-1.32,1.22-2.54,1.22-1.67,0-2.69-.87-2.69-2.14,0-1.13.73-2.09,2.84-2.09h2.34v-.45c0-1.26-.71-1.95-2.09-1.95-.95,0-1.85.34-2.45.87l-.45-.74c.74-.63,1.83-.99,3-.99,1.9,0,2.98.95,2.98,2.86Zm-.99,2.35v-1.2h-2.31c-1.43,0-1.89.56-1.89,1.32,0,.85.69,1.39,1.86,1.39s1.95-.53,2.34-1.5Z"/>
    <path class="cls-2" d="m201.32,94.55v.97c-.08,0-.17-.01-.24-.01-1.54,0-2.48.98-2.48,2.72v3.75h-.99v-7.37h.95v1.44c.46-.98,1.4-1.5,2.76-1.5Z"/>
    <path class="cls-2" d="m208.66,97.41v4.57h-.95v-1.15c-.45.76-1.32,1.22-2.54,1.22-1.67,0-2.69-.87-2.69-2.14,0-1.13.73-2.09,2.84-2.09h2.34v-.45c0-1.26-.71-1.95-2.09-1.95-.95,0-1.85.34-2.45.87l-.45-.74c.74-.63,1.84-.99,3-.99,1.9,0,2.98.95,2.98,2.86Zm-.99,2.35v-1.2h-2.31c-1.43,0-1.89.56-1.89,1.32,0,.85.69,1.39,1.86,1.39s1.95-.53,2.34-1.5Z"/>
    <path class="cls-2" d="m215.07,94.55v.97c-.08,0-.17-.01-.24-.01-1.54,0-2.48.98-2.48,2.72v3.75h-.99v-7.37h.95v1.44c.46-.98,1.4-1.5,2.76-1.5Z"/>
    <path class="cls-2" d="m217.69,101.27c0,.24-.06.42-.2.81l-.59,1.93h-.67l.48-2.03c-.29-.08-.5-.35-.5-.71,0-.43.32-.76.74-.76s.74.34.74.76Z"/>
    <path class="cls-2" d="m71.51,115.09c0-2.2,1.6-3.74,3.8-3.74,1.25,0,2.3.49,2.89,1.46l-.74.5c-.5-.74-1.29-1.09-2.14-1.09-1.61,0-2.79,1.15-2.79,2.87s1.18,2.87,2.79,2.87c.85,0,1.64-.34,2.14-1.08l.74.5c-.59.95-1.64,1.46-2.89,1.46-2.2,0-3.8-1.55-3.8-3.75Z"/>
    <path class="cls-2" d="m79.27,115.09c0-2.19,1.6-3.74,3.75-3.74s3.74,1.55,3.74,3.74-1.58,3.75-3.74,3.75-3.75-1.57-3.75-3.75Zm6.49,0c0-1.72-1.16-2.87-2.73-2.87s-2.75,1.15-2.75,2.87,1.18,2.87,2.75,2.87,2.73-1.15,2.73-2.87Z"/>
    <path class="cls-2" d="m88.05,115.09c0-2.2,1.6-3.74,3.8-3.74,1.25,0,2.3.49,2.89,1.46l-.74.5c-.5-.74-1.29-1.09-2.14-1.09-1.61,0-2.79,1.15-2.79,2.87s1.18,2.87,2.79,2.87c.85,0,1.64-.34,2.14-1.08l.74.5c-.59.95-1.64,1.46-2.89,1.46-2.2,0-3.8-1.55-3.8-3.75Z"/>
    <path class="cls-2" d="m96.45,109.08c0-.38.32-.7.73-.7s.73.31.73.69c0,.41-.31.73-.73.73s-.73-.32-.73-.71Zm.22,2.33h.99v7.37h-.99v-7.37Z"/>
    <path class="cls-2" d="m107.22,114.5v4.27h-.99v-4.17c0-1.55-.81-2.35-2.21-2.35-1.58,0-2.58.98-2.58,2.66v3.87h-.99v-7.37h.95v1.36c.53-.9,1.53-1.42,2.8-1.42,1.79,0,3.03,1.04,3.03,3.15Z"/>
    <path class="cls-2" d="m115.48,114.21v4.57h-.95v-1.15c-.45.76-1.32,1.22-2.54,1.22-1.67,0-2.69-.87-2.69-2.14,0-1.13.73-2.09,2.84-2.09h2.34v-.45c0-1.26-.71-1.95-2.09-1.95-.95,0-1.85.34-2.45.87l-.45-.74c.74-.63,1.83-.99,3-.99,1.9,0,2.98.95,2.98,2.86Zm-.99,2.35v-1.21h-2.31c-1.43,0-1.89.56-1.89,1.32,0,.85.69,1.39,1.86,1.39s1.95-.53,2.34-1.5Z"/>
    <path class="cls-2" d="m121.89,111.35v.97c-.08,0-.17-.01-.24-.01-1.54,0-2.48.98-2.48,2.72v3.75h-.99v-7.37h.95v1.44c.46-.98,1.4-1.5,2.76-1.5Z"/>
    <path class="cls-2" d="m124.5,118.07c0,.24-.06.42-.2.81l-.59,1.93h-.67l.48-2.03c-.29-.08-.5-.35-.5-.71,0-.43.32-.76.74-.76s.74.34.74.76Z"/>
    <path class="cls-2" d="m130.28,108.38h.99v10.39h-.99v-10.39Z"/>
    <path class="cls-2" d="m133.83,109.08c0-.38.32-.7.73-.7s.73.31.73.69c0,.41-.31.73-.73.73s-.73-.32-.73-.71Zm.22,2.33h.99v7.37h-.99v-7.37Z"/>
    <path class="cls-2" d="m149.97,114.5v4.27h-.99v-4.17c0-1.55-.78-2.35-2.12-2.35-1.51,0-2.47.98-2.47,2.66v3.87h-.99v-4.17c0-1.55-.78-2.35-2.13-2.35-1.5,0-2.47.98-2.47,2.66v3.87h-.99v-7.37h.95v1.34c.52-.88,1.47-1.4,2.7-1.4s2.17.52,2.62,1.55c.53-.95,1.58-1.55,2.91-1.55,1.79,0,2.97,1.04,2.97,3.15Z"/>
    <path class="cls-2" d="m160.14,115.09c0,2.24-1.57,3.75-3.67,3.75-1.18,0-2.19-.5-2.8-1.46v4.1h-.99v-10.09h.95v1.46c.6-.98,1.62-1.51,2.84-1.51,2.1,0,3.67,1.51,3.67,3.74Zm-.99,0c0-1.71-1.19-2.87-2.75-2.87s-2.75,1.16-2.75,2.87,1.18,2.87,2.75,2.87,2.75-1.15,2.75-2.87Z"/>
    <path class="cls-2" d="m161.94,109.08c0-.38.32-.7.73-.7s.73.31.73.69c0,.41-.31.73-.73.73s-.73-.32-.73-.71Zm.22,2.33h.99v7.37h-.99v-7.37Z"/>
    <path class="cls-2" d="m171.49,114.21v4.57h-.95v-1.15c-.45.76-1.32,1.22-2.54,1.22-1.67,0-2.69-.87-2.69-2.14,0-1.13.73-2.09,2.84-2.09h2.34v-.45c0-1.26-.71-1.95-2.09-1.95-.95,0-1.85.34-2.45.87l-.45-.74c.74-.63,1.83-.99,3-.99,1.9,0,2.98.95,2.98,2.86Zm-.99,2.35v-1.21h-2.31c-1.43,0-1.89.56-1.89,1.32,0,.85.69,1.39,1.86,1.39s1.95-.53,2.34-1.5Z"/>
    <path class="cls-2" d="m177.9,111.35v.97c-.08,0-.17-.01-.24-.01-1.54,0-2.48.98-2.48,2.72v3.75h-.99v-7.37h.95v1.44c.46-.98,1.4-1.5,2.76-1.5Z"/>
    <path class="cls-2" d="m179.02,118.07c0-.43.34-.76.74-.76s.76.32.76.76-.35.77-.76.77-.74-.34-.74-.77Z"/>
    <path class="cls-2" d="m181.98,118.07c0-.43.34-.76.74-.76s.76.32.76.76-.35.77-.76.77-.74-.34-.74-.77Z"/>
    <path class="cls-2" d="m184.95,118.07c0-.43.34-.76.74-.76s.76.32.76.76-.35.77-.76.77-.74-.34-.74-.77Z"/>
    <path class="cls-2" d="m75.48,129.2c0,.71-.56,1.26-1.34,1.26s-1.34-.55-1.34-1.26.56-1.27,1.34-1.27,1.34.57,1.34,1.27Zm-.04,8.53h-2.61l.43-6.29h1.74l.43,6.29Z"/>
    <path class="cls-2" d="m79.07,127.62h-3.14v-1.85h8.54v1.85h-3.14v7.96h-2.27v-7.96Z"/>
    <path class="cls-2" d="m85.1,125.77c0-.69.55-1.22,1.36-1.22s1.36.5,1.36,1.18c0,.73-.55,1.26-1.36,1.26s-1.36-.53-1.36-1.22Zm.27,2.27h2.19v7.54h-2.19v-7.54Z"/>
    <path class="cls-2" d="m96.92,132.42h-5.7c.21.94,1.01,1.51,2.16,1.51.8,0,1.37-.24,1.89-.73l1.16,1.26c-.7.8-1.75,1.22-3.11,1.22-2.61,0-4.3-1.64-4.3-3.88s1.72-3.88,4.02-3.88,3.92,1.48,3.92,3.91c0,.17-.03.41-.04.59Zm-5.73-1.27h3.71c-.15-.95-.87-1.57-1.85-1.57s-1.71.6-1.86,1.57Z"/>
    <path class="cls-2" d="m111.15,131.26v4.31h-2.19v-3.98c0-1.22-.55-1.78-1.43-1.78-.98,0-1.67.63-1.67,1.97v3.78h-2.19v-3.98c0-1.22-.52-1.78-1.43-1.78-.97,0-1.65.63-1.65,1.97v3.78h-2.19v-7.54h2.09v.87c.56-.64,1.4-.98,2.37-.98,1.05,0,1.95.41,2.48,1.23.6-.77,1.58-1.23,2.72-1.23,1.79,0,3.08,1.04,3.08,3.33Z"/>
    <path class="cls-2" d="m121.31,131.8c0,2.37-1.64,3.88-3.75,3.88-.94,0-1.71-.29-2.27-.91v3.52h-2.19v-10.25h2.09v.87c.55-.66,1.36-.98,2.37-.98,2.12,0,3.75,1.51,3.75,3.88Zm-2.21,0c0-1.3-.83-2.09-1.92-2.09s-1.92.78-1.92,2.09.83,2.09,1.92,2.09,1.92-.78,1.92-2.09Z"/>
    <path class="cls-2" d="m122.2,131.8c0-2.27,1.75-3.88,4.15-3.88s4.13,1.61,4.13,3.88-1.74,3.88-4.13,3.88-4.15-1.61-4.15-3.88Zm6.07,0c0-1.3-.83-2.09-1.92-2.09s-1.93.78-1.93,2.09.84,2.09,1.93,2.09,1.92-.78,1.92-2.09Z"/>
    <path class="cls-2" d="m144.1,131.8c0,2.37-1.64,3.88-3.75,3.88-.94,0-1.71-.29-2.27-.91v3.52h-2.19v-10.25h2.09v.87c.55-.66,1.36-.98,2.37-.98,2.12,0,3.75,1.51,3.75,3.88Zm-2.21,0c0-1.3-.83-2.09-1.92-2.09s-1.92.78-1.92,2.09.83,2.09,1.92,2.09,1.92-.78,1.92-2.09Z"/>
    <path class="cls-2" d="m152.09,131.27v4.3h-2.05v-.94c-.41.69-1.19,1.05-2.3,1.05-1.77,0-2.82-.98-2.82-2.28s.94-2.25,3.24-2.25h1.74c0-.94-.56-1.49-1.74-1.49-.8,0-1.62.27-2.17.7l-.78-1.53c.83-.59,2.05-.91,3.25-.91,2.3,0,3.63,1.06,3.63,3.35Zm-2.19,1.92v-.77h-1.5c-1.02,0-1.34.38-1.34.88,0,.55.46.91,1.23.91.73,0,1.36-.34,1.61-1.02Z"/>
    <path class="cls-2" d="m158.74,127.92v2.02c-.18-.01-.32-.03-.49-.03-1.2,0-2,.66-2,2.1v3.56h-2.19v-7.54h2.09v1c.53-.73,1.43-1.11,2.59-1.11Z"/>
    <path class="cls-2" d="m166.67,131.27v4.3h-2.05v-.94c-.41.69-1.19,1.05-2.3,1.05-1.77,0-2.82-.98-2.82-2.28s.94-2.25,3.24-2.25h1.74c0-.94-.56-1.49-1.74-1.49-.8,0-1.62.27-2.17.7l-.78-1.53c.83-.59,2.05-.91,3.25-.91,2.3,0,3.63,1.06,3.63,3.35Zm-2.19,1.92v-.77h-1.5c-1.02,0-1.34.38-1.34.88,0,.55.46.91,1.23.91.73,0,1.36-.34,1.61-1.02Z"/>
    <path class="cls-2" d="m177.46,135.21c-.45.32-1.11.48-1.78.48-1.78,0-2.82-.91-2.82-2.7v-3.1h-1.16v-1.68h1.16v-1.83h2.19v1.83h1.88v1.68h-1.88v3.07c0,.64.35.99.94.99.32,0,.64-.1.88-.28l.59,1.54Z"/>
    <path class="cls-2" d="m178.42,125.77c0-.69.55-1.22,1.36-1.22s1.36.5,1.36,1.18c0,.73-.55,1.26-1.36,1.26s-1.36-.53-1.36-1.22Zm.27,2.27h2.19v7.54h-2.19v-7.54Z"/>
    <path class="cls-2" d="m182.58,134.41c0-.71.56-1.25,1.34-1.25s1.34.53,1.34,1.25-.56,1.27-1.34,1.27-1.34-.57-1.34-1.27Zm.04-8.64h2.61l-.43,6.4h-1.74l-.43-6.4Z"/>
  </g>
  <g>
    <path class="cls-2" d="m400.06,34.06c0-2.96,2.27-5.07,5.32-5.07,1.69,0,3.11.62,4.03,1.74l-1.46,1.34c-.66-.76-1.48-1.15-2.47-1.15-1.83,0-3.14,1.29-3.14,3.14s1.3,3.14,3.14,3.14c.98,0,1.81-.39,2.47-1.16l1.46,1.34c-.92,1.13-2.34,1.75-4.05,1.75-3.04,0-5.31-2.12-5.31-5.07Z"/>
    <path class="cls-2" d="m417.2,36.86h-4.55l-.87,2.1h-2.33l4.37-9.81h2.24l4.38,9.81h-2.38l-.87-2.1Zm-.71-1.72l-1.55-3.75-1.56,3.75h3.11Z"/>
    <path class="cls-2" d="m420.28,37.7l1.26-1.51c.53.71,1.12,1.08,1.82,1.08.91,0,1.39-.55,1.39-1.62v-4.66h-3.45v-1.82h5.7v6.36c0,2.42-1.22,3.61-3.53,3.61-1.32,0-2.48-.5-3.19-1.43Z"/>
    <path class="cls-2" d="m435.49,36.86h-4.55l-.87,2.1h-2.33l4.37-9.81h2.24l4.38,9.81h-2.38l-.87-2.1Zm-.71-1.72l-1.55-3.75-1.56,3.75h3.11Z"/>
    <path class="cls-2" d="m443.72,29.16h4.45c3.21,0,5.41,1.93,5.41,4.9s-2.2,4.9-5.41,4.9h-4.45v-9.81Zm4.34,7.94c1.95,0,3.22-1.16,3.22-3.04s-1.27-3.04-3.22-3.04h-2.07v6.08h2.07Z"/>
    <path class="cls-2" d="m462.88,37.14v1.82h-7.59v-9.81h7.41v1.82h-5.15v2.13h4.55v1.77h-4.55v2.27h5.34Z"/>
    <path class="cls-2" d="m405.36,55.76l-1.89-2.73h-2.09v2.73h-2.27v-9.81h4.24c2.62,0,4.26,1.36,4.26,3.56,0,1.47-.74,2.55-2.02,3.1l2.2,3.15h-2.44Zm-2.13-7.96h-1.85v3.42h1.85c1.39,0,2.09-.64,2.09-1.71s-.7-1.71-2.09-1.71Z"/>
    <path class="cls-2" d="m416.99,53.94v1.82h-7.59v-9.81h7.41v1.82h-5.15v2.13h4.55v1.76h-4.55v2.27h5.34Z"/>
    <path class="cls-2" d="m418.15,50.86c0-2.96,2.27-5.07,5.32-5.07,1.69,0,3.11.62,4.03,1.74l-1.46,1.34c-.66-.76-1.48-1.15-2.47-1.15-1.83,0-3.14,1.29-3.14,3.14s1.3,3.14,3.14,3.14c.98,0,1.81-.39,2.47-1.16l1.46,1.34c-.92,1.13-2.34,1.75-4.05,1.75-3.04,0-5.31-2.12-5.31-5.07Z"/>
    <path class="cls-2" d="m436.62,53.94v1.82h-7.59v-9.81h7.41v1.82h-5.15v2.13h4.55v1.76h-4.55v2.27h5.34Z"/>
    <path class="cls-2" d="m440.45,47.8h-3.14v-1.85h8.54v1.85h-3.14v7.96h-2.27v-7.96Z"/>
    <path class="cls-2" d="m453.04,53.66h-4.55l-.87,2.1h-2.33l4.37-9.81h2.24l4.38,9.81h-2.38l-.87-2.1Zm-.71-1.72l-1.55-3.75-1.56,3.75h3.11Z"/>
    <path class="cls-2" d="m456.54,54.8l.77-1.71c.83.6,2.06,1.02,3.24,1.02,1.34,0,1.89-.45,1.89-1.05,0-1.83-5.7-.57-5.7-4.22,0-1.67,1.34-3.05,4.13-3.05,1.23,0,2.49.29,3.4.87l-.7,1.72c-.91-.52-1.85-.77-2.72-.77-1.34,0-1.86.5-1.86,1.12,0,1.81,5.7.56,5.7,4.16,0,1.64-1.36,3.04-4.16,3.04-1.55,0-3.12-.46-3.99-1.13Z"/>
  </g>
  <g>
    <path class="cls-2" d="m538.29,36.86h-4.55l-.87,2.1h-2.33l4.37-9.81h2.24l4.38,9.81h-2.38l-.87-2.1Zm-.71-1.72l-1.55-3.75-1.56,3.75h3.11Z"/>
    <path class="cls-2" d="m551.05,32.71c0,2.19-1.64,3.54-4.26,3.54h-1.98v2.7h-2.27v-9.81h4.24c2.62,0,4.26,1.36,4.26,3.56Zm-2.3,0c0-1.08-.7-1.71-2.09-1.71h-1.85v3.4h1.85c1.39,0,2.09-.63,2.09-1.7Z"/>
    <path class="cls-2" d="m561.16,32.71c0,2.19-1.64,3.54-4.26,3.54h-1.97v2.7h-2.27v-9.81h4.24c2.62,0,4.26,1.36,4.26,3.56Zm-2.3,0c0-1.08-.7-1.71-2.09-1.71h-1.85v3.4h1.85c1.39,0,2.09-.63,2.09-1.7Z"/>
    <path class="cls-2" d="m562.14,37.99l.77-1.71c.83.6,2.06,1.02,3.24,1.02,1.34,0,1.89-.45,1.89-1.05,0-1.84-5.7-.57-5.7-4.22,0-1.67,1.34-3.05,4.13-3.05,1.23,0,2.49.29,3.4.87l-.7,1.72c-.91-.52-1.85-.77-2.72-.77-1.34,0-1.86.5-1.86,1.12,0,1.81,5.7.56,5.7,4.16,0,1.64-1.36,3.04-4.16,3.04-1.55,0-3.12-.46-3.99-1.13Z"/>
    <path class="cls-2" d="m515.24,45.96h4.45c3.21,0,5.41,1.93,5.41,4.9s-2.2,4.9-5.41,4.9h-4.45v-9.81Zm4.34,7.94c1.95,0,3.22-1.16,3.22-3.04s-1.27-3.04-3.22-3.04h-2.07v6.08h2.07Z"/>
    <path class="cls-2" d="m534.39,53.94v1.82h-7.59v-9.81h7.41v1.82h-5.15v2.13h4.55v1.76h-4.55v2.27h5.34Z"/>
    <path class="cls-2" d="m536.2,45.96h2.27v7.96h4.92v1.85h-7.19v-9.81Z"/>
    <path class="cls-2" d="m544.65,45.96h2.27v9.81h-2.27v-9.81Z"/>
    <path class="cls-2" d="m558.62,45.96l-4.25,9.81h-2.24l-4.23-9.81h2.45l2.98,7,3.03-7h2.26Z"/>
    <path class="cls-2" d="m567.01,53.94v1.82h-7.59v-9.81h7.41v1.82h-5.16v2.13h4.55v1.76h-4.55v2.27h5.34Z"/>
    <path class="cls-2" d="m575.06,55.76l-1.89-2.73h-2.09v2.73h-2.27v-9.81h4.24c2.62,0,4.26,1.36,4.26,3.56,0,1.47-.74,2.55-2.02,3.1l2.2,3.15h-2.44Zm-2.13-7.96h-1.85v3.42h1.85c1.39,0,2.09-.64,2.09-1.71s-.7-1.71-2.09-1.71Z"/>
    <path class="cls-2" d="m583.67,52.29v3.47h-2.27v-3.5l-3.8-6.3h2.41l2.62,4.36,2.62-4.36h2.23l-3.81,6.33Z"/>
  </g>
  <g>
    <path class="cls-2" d="m643.95,29.16v9.81h-2.27v-4.02h-4.46v4.02h-2.27v-9.81h2.27v3.87h4.46v-3.87h2.27Z"/>
    <path class="cls-2" d="m652.73,36.86h-4.55l-.87,2.1h-2.33l4.37-9.81h2.24l4.38,9.81h-2.38l-.87-2.1Zm-.71-1.72l-1.55-3.75-1.55,3.75h3.11Z"/>
    <path class="cls-2" d="m656.24,34.06c0-2.96,2.27-5.07,5.32-5.07,1.7,0,3.11.62,4.03,1.74l-1.46,1.34c-.66-.76-1.49-1.15-2.47-1.15-1.83,0-3.14,1.29-3.14,3.14s1.3,3.14,3.14,3.14c.98,0,1.81-.39,2.47-1.16l1.46,1.34c-.92,1.13-2.34,1.75-4.05,1.75-3.04,0-5.31-2.12-5.31-5.07Z"/>
    <path class="cls-2" d="m674.71,37.14v1.82h-7.59v-9.81h7.41v1.82h-5.16v2.13h4.55v1.77h-4.55v2.27h5.34Z"/>
    <path class="cls-2" d="m682.76,38.96l-1.89-2.73h-2.09v2.73h-2.27v-9.81h4.24c2.62,0,4.26,1.36,4.26,3.56,0,1.47-.74,2.55-2.02,3.1l2.2,3.15h-2.44Zm-2.13-7.96h-1.85v3.42h1.85c1.39,0,2.09-.64,2.09-1.71s-.7-1.71-2.09-1.71Z"/>
    <path class="cls-2" d="m686.8,29.16h2.27v7.96h4.92v1.85h-7.19v-9.81Z"/>
    <path class="cls-2" d="m694.47,34.06c0-2.91,2.27-5.07,5.37-5.07s5.36,2.14,5.36,5.07-2.28,5.07-5.36,5.07-5.37-2.16-5.37-5.07Zm8.43,0c0-1.86-1.32-3.14-3.07-3.14s-3.07,1.27-3.07,3.14,1.32,3.14,3.07,3.14,3.07-1.27,3.07-3.14Z"/>
    <path class="cls-2" d="m633.85,47.8h-3.14v-1.85h8.54v1.85h-3.14v7.96h-2.27v-7.96Z"/>
    <path class="cls-2" d="m640.22,51.45v-5.49h2.27v5.41c0,1.86.81,2.63,2.19,2.63s2.18-.77,2.18-2.63v-5.41h2.24v5.49c0,2.88-1.65,4.48-4.44,4.48s-4.44-1.6-4.44-4.48Zm5.07-8.31h2.35l-2.54,2.02h-1.71l1.89-2.02Z"/>
    <path class="cls-2" d="m664.22,55.76v-5.88s-2.9,4.85-2.9,4.85h-1.02l-2.87-4.72v5.76h-2.13v-9.81h1.88l3.67,6.09,3.61-6.09h1.86l.03,9.81h-2.13Z"/>
    <path class="cls-2" d="m668.67,45.96h2.27v9.81h-2.27v-9.81Z"/>
    <path class="cls-2" d="m672.49,54.8l.77-1.71c.83.6,2.06,1.02,3.24,1.02,1.34,0,1.89-.45,1.89-1.05,0-1.83-5.7-.57-5.7-4.22,0-1.67,1.34-3.05,4.13-3.05,1.23,0,2.49.29,3.4.87l-.7,1.72c-.91-.52-1.85-.77-2.72-.77-1.34,0-1.86.5-1.86,1.12,0,1.81,5.7.56,5.7,4.16,0,1.64-1.36,3.04-4.16,3.04-1.55,0-3.12-.46-3.99-1.13Z"/>
    <path class="cls-2" d="m691.11,55.76v-5.88s-2.9,4.85-2.9,4.85h-1.02l-2.87-4.72v5.76h-2.13v-9.81h1.88l3.67,6.09,3.61-6.09h1.86l.03,9.81h-2.13Z"/>
    <path class="cls-2" d="m708.35,50.98c0,2.51-1.15,3.94-2.87,3.94-.95,0-1.62-.42-1.92-1.22-.49.78-1.29,1.22-2.4,1.22-1.81,0-3.24-1.43-3.24-3.54s1.42-3.53,3.24-3.53c.92,0,1.65.32,2.16.92v-.83h1.91v4.54c0,.67.29.9.67.9.64,0,1.04-.74,1.04-2.37,0-2.84-2.1-4.8-5.21-4.8s-5.21,2.13-5.21,5.06,2.04,5.1,5.16,5.1c.88,0,1.88-.18,2.76-.62l.45,1.29c-.85.43-2.1.67-3.21.67-4.05,0-6.72-2.75-6.72-6.44s2.7-6.39,6.78-6.39,6.63,2.59,6.63,6.11Zm-5,.39c0-1.22-.74-1.91-1.75-1.91s-1.74.71-1.74,1.91.71,1.93,1.74,1.93,1.75-.7,1.75-1.93Z"/>
  </g>
  <rect class="cls-5" x="7.82" y="157.68" width="242.58" height="73.37" rx="16.2" ry="16.2"/>
  <g>
    <path class="cls-2" d="m45.5,172.95h1.04v8.91h5.49v.9h-6.53v-9.81Z"/>
    <path class="cls-2" d="m59.13,178.19v4.57h-.95v-1.15c-.45.76-1.32,1.22-2.54,1.22-1.67,0-2.69-.87-2.69-2.14,0-1.13.73-2.09,2.84-2.09h2.34v-.45c0-1.26-.71-1.95-2.09-1.95-.95,0-1.85.34-2.45.87l-.45-.74c.74-.63,1.83-.99,3-.99,1.9,0,2.98.95,2.98,2.86Zm-.99,2.35v-1.2h-2.31c-1.43,0-1.89.56-1.89,1.32,0,.85.69,1.39,1.86,1.39s1.95-.53,2.34-1.5Z"/>
    <path class="cls-2" d="m64.75,179.07c0-2.2,1.6-3.74,3.8-3.74,1.25,0,2.3.49,2.89,1.46l-.74.5c-.5-.74-1.29-1.09-2.14-1.09-1.61,0-2.79,1.15-2.79,2.87s1.18,2.87,2.79,2.87c.85,0,1.64-.34,2.14-1.08l.74.5c-.59.95-1.64,1.46-2.89,1.46-2.2,0-3.8-1.55-3.8-3.75Z"/>
    <path class="cls-2" d="m72.51,179.07c0-2.18,1.6-3.74,3.75-3.74s3.74,1.55,3.74,3.74-1.58,3.75-3.74,3.75-3.75-1.57-3.75-3.75Zm6.49,0c0-1.72-1.16-2.87-2.73-2.87s-2.75,1.15-2.75,2.87,1.18,2.87,2.75,2.87,2.73-1.15,2.73-2.87Z"/>
    <path class="cls-2" d="m94.18,178.49v4.27h-.99v-4.17c0-1.55-.78-2.35-2.12-2.35-1.51,0-2.47.98-2.47,2.66v3.87h-.99v-4.17c0-1.55-.78-2.35-2.13-2.35-1.5,0-2.47.98-2.47,2.66v3.87h-.99v-7.37h.95v1.34c.52-.88,1.47-1.4,2.7-1.4s2.17.52,2.62,1.55c.53-.95,1.58-1.55,2.91-1.55,1.79,0,2.97,1.04,2.97,3.15Z"/>
    <path class="cls-2" d="m96.66,173.07c0-.38.32-.7.73-.7s.73.31.73.69c0,.41-.31.73-.73.73s-.73-.32-.73-.71Zm.22,2.33h.99v7.37h-.99v-7.37Z"/>
    <path class="cls-2" d="m107.37,172.37v10.39h-.95v-1.46c-.6.99-1.62,1.53-2.84,1.53-2.1,0-3.67-1.53-3.67-3.75s1.57-3.74,3.67-3.74c1.18,0,2.19.5,2.8,1.46v-4.43h.99Zm-.98,6.71c0-1.72-1.18-2.87-2.73-2.87s-2.75,1.15-2.75,2.87,1.18,2.87,2.75,2.87,2.73-1.15,2.73-2.87Z"/>
    <path class="cls-2" d="m115.7,178.19v4.57h-.95v-1.15c-.45.76-1.32,1.22-2.54,1.22-1.67,0-2.69-.87-2.69-2.14,0-1.13.73-2.09,2.84-2.09h2.34v-.45c0-1.26-.71-1.95-2.09-1.95-.95,0-1.85.34-2.45.87l-.45-.74c.74-.63,1.84-.99,3-.99,1.9,0,2.98.95,2.98,2.86Zm-.99,2.35v-1.2h-2.31c-1.43,0-1.89.56-1.89,1.32,0,.85.69,1.39,1.86,1.39s1.95-.53,2.34-1.5Z"/>
    <path class="cls-2" d="m128.79,172.37v10.39h-.95v-1.46c-.6.99-1.62,1.53-2.84,1.53-2.1,0-3.67-1.53-3.67-3.75s1.57-3.74,3.67-3.74c1.18,0,2.19.5,2.8,1.46v-4.43h.99Zm-.98,6.71c0-1.72-1.18-2.87-2.73-2.87s-2.75,1.15-2.75,2.87,1.18,2.87,2.75,2.87,2.73-1.15,2.73-2.87Z"/>
    <path class="cls-2" d="m137.97,179.38h-6.16c.11,1.54,1.29,2.56,2.9,2.56.9,0,1.69-.32,2.25-.97l.56.64c-.66.78-1.68,1.2-2.84,1.2-2.3,0-3.87-1.57-3.87-3.75s1.53-3.74,3.6-3.74,3.57,1.53,3.57,3.74c0,.08-.01.2-.01.31Zm-6.16-.74h5.23c-.13-1.44-1.18-2.45-2.62-2.45s-2.48,1.01-2.61,2.45Z"/>
    <path class="cls-2" d="m143.68,172.37h.99v10.39h-.99v-10.39Z"/>
    <path class="cls-2" d="m153.01,178.19v4.57h-.95v-1.15c-.45.76-1.32,1.22-2.54,1.22-1.67,0-2.69-.87-2.69-2.14,0-1.13.73-2.09,2.84-2.09h2.34v-.45c0-1.26-.71-1.95-2.09-1.95-.95,0-1.85.34-2.45.87l-.45-.74c.74-.63,1.84-.99,3-.99,1.9,0,2.98.95,2.98,2.86Zm-.99,2.35v-1.2h-2.31c-1.43,0-1.89.56-1.89,1.32,0,.85.69,1.39,1.86,1.39s1.95-.53,2.34-1.5Z"/>
    <path class="cls-2" d="m158.35,181.92l.45-.78c.59.46,1.58.83,2.62.83,1.4,0,1.98-.48,1.98-1.2,0-1.92-4.78-.41-4.78-3.32,0-1.2,1.04-2.1,2.91-2.1.95,0,1.99.27,2.61.69l-.43.8c-.64-.45-1.41-.63-2.17-.63-1.33,0-1.92.52-1.92,1.22,0,1.99,4.78.49,4.78,3.32,0,1.27-1.12,2.1-3.04,2.1-1.22,0-2.4-.39-3-.91Z"/>
    <path class="cls-2" d="m172.64,179.38h-6.16c.11,1.54,1.29,2.56,2.9,2.56.9,0,1.69-.32,2.25-.97l.56.64c-.66.78-1.68,1.2-2.84,1.2-2.3,0-3.87-1.57-3.87-3.75s1.53-3.74,3.6-3.74,3.57,1.53,3.57,3.74c0,.08-.01.2-.01.31Zm-6.16-.74h5.23c-.13-1.44-1.18-2.45-2.62-2.45s-2.48,1.01-2.61,2.45Z"/>
    <path class="cls-2" d="m186.84,178.49v4.27h-.99v-4.17c0-1.55-.78-2.35-2.12-2.35-1.51,0-2.47.98-2.47,2.66v3.87h-.99v-4.17c0-1.55-.78-2.35-2.13-2.35-1.5,0-2.47.98-2.47,2.66v3.87h-.99v-7.37h.95v1.34c.52-.88,1.47-1.4,2.7-1.4s2.17.52,2.62,1.55c.53-.95,1.58-1.55,2.91-1.55,1.79,0,2.97,1.04,2.97,3.15Z"/>
    <path class="cls-2" d="m195.09,178.19v4.57h-.95v-1.15c-.45.76-1.32,1.22-2.54,1.22-1.67,0-2.69-.87-2.69-2.14,0-1.13.73-2.09,2.84-2.09h2.34v-.45c0-1.26-.71-1.95-2.09-1.95-.95,0-1.85.34-2.45.87l-.45-.74c.74-.63,1.84-.99,3-.99,1.9,0,2.98.95,2.98,2.86Zm-.99,2.35v-1.2h-2.31c-1.43,0-1.89.56-1.89,1.32,0,.85.69,1.39,1.86,1.39s1.95-.53,2.34-1.5Z"/>
    <path class="cls-2" d="m204.57,178.49v4.27h-.99v-4.17c0-1.55-.81-2.35-2.21-2.35-1.58,0-2.58.98-2.58,2.66v3.87h-.99v-7.37h.95v1.36c.53-.9,1.53-1.41,2.8-1.41,1.79,0,3.03,1.04,3.03,3.15Z"/>
    <path class="cls-2" d="m212.83,178.19v4.57h-.95v-1.15c-.45.76-1.32,1.22-2.54,1.22-1.67,0-2.69-.87-2.69-2.14,0-1.13.73-2.09,2.84-2.09h2.34v-.45c0-1.26-.71-1.95-2.09-1.95-.95,0-1.85.34-2.45.87l-.45-.74c.74-.63,1.83-.99,3-.99,1.9,0,2.98.95,2.98,2.86Zm-.99,2.35v-1.2h-2.31c-1.43,0-1.89.56-1.89,1.32,0,.85.69,1.39,1.86,1.39s1.95-.53,2.34-1.5Z"/>
    <path class="cls-2" d="m65.78,196.18h-6.16c.11,1.54,1.29,2.56,2.9,2.56.9,0,1.69-.32,2.25-.97l.56.64c-.66.79-1.68,1.21-2.84,1.21-2.3,0-3.87-1.57-3.87-3.75s1.53-3.74,3.6-3.74,3.57,1.53,3.57,3.74c0,.08-.01.2-.01.31Zm-6.16-.74h5.23c-.13-1.44-1.18-2.45-2.62-2.45s-2.48,1.01-2.61,2.45Z"/>
    <path class="cls-2" d="m74.6,195.29v4.27h-.99v-4.17c0-1.55-.81-2.35-2.21-2.35-1.58,0-2.58.98-2.58,2.66v3.87h-.99v-7.37h.95v1.36c.53-.9,1.53-1.42,2.8-1.42,1.79,0,3.03,1.04,3.03,3.15Z"/>
    <path class="cls-2" d="m87.61,192.19v7.37h-.95v-1.34c-.52.9-1.47,1.42-2.65,1.42-1.88,0-3.11-1.05-3.11-3.17v-4.27h.99v4.17c0,1.57.81,2.37,2.21,2.37,1.54,0,2.51-.99,2.51-2.68v-3.87h.99Z"/>
    <path class="cls-2" d="m97.17,195.29v4.27h-.99v-4.17c0-1.55-.81-2.35-2.21-2.35-1.58,0-2.58.98-2.58,2.66v3.87h-.99v-7.37h.95v1.36c.53-.9,1.53-1.42,2.8-1.42,1.79,0,3.03,1.04,3.03,3.15Z"/>
    <path class="cls-2" d="m105.43,194.99v4.57h-.95v-1.15c-.45.76-1.32,1.22-2.54,1.22-1.67,0-2.69-.87-2.69-2.14,0-1.13.73-2.09,2.84-2.09h2.34v-.45c0-1.26-.71-1.95-2.09-1.95-.95,0-1.85.34-2.45.87l-.45-.74c.74-.63,1.83-.99,3-.99,1.9,0,2.98.95,2.98,2.86Zm-.99,2.35v-1.21h-2.31c-1.43,0-1.89.56-1.89,1.32,0,.85.69,1.39,1.86,1.39s1.95-.53,2.34-1.5Z"/>
    <path class="cls-2" d="m110.78,198.72l.45-.79c.59.46,1.58.83,2.62.83,1.4,0,1.98-.48,1.98-1.21,0-1.92-4.78-.41-4.78-3.32,0-1.21,1.04-2.1,2.91-2.1.95,0,1.99.27,2.61.69l-.43.8c-.64-.45-1.42-.63-2.17-.63-1.33,0-1.92.52-1.92,1.22,0,1.99,4.78.49,4.78,3.32,0,1.28-1.12,2.1-3.04,2.1-1.22,0-2.4-.39-3-.91Z"/>
    <path class="cls-2" d="m117.9,195.88c0-2.19,1.6-3.74,3.75-3.74s3.74,1.55,3.74,3.74-1.58,3.75-3.74,3.75-3.75-1.57-3.75-3.75Zm6.49,0c0-1.72-1.16-2.87-2.73-2.87s-2.75,1.15-2.75,2.87,1.18,2.87,2.75,2.87,2.73-1.15,2.73-2.87Z"/>
    <path class="cls-2" d="m127.42,189.17h.99v10.39h-.99v-10.39Z"/>
    <path class="cls-2" d="m136.75,194.99v4.57h-.95v-1.15c-.45.76-1.32,1.22-2.54,1.22-1.67,0-2.69-.87-2.69-2.14,0-1.13.73-2.09,2.84-2.09h2.34v-.45c0-1.26-.71-1.95-2.09-1.95-.95,0-1.85.34-2.45.87l-.45-.74c.74-.63,1.84-.99,3-.99,1.9,0,2.98.95,2.98,2.86Zm-.99,2.35v-1.21h-2.31c-1.43,0-1.89.56-1.89,1.32,0,.85.69,1.39,1.86,1.39s1.95-.53,2.34-1.5Z"/>
    <path class="cls-2" d="m149.53,196.18h-6.16c.11,1.54,1.29,2.56,2.9,2.56.9,0,1.69-.32,2.25-.97l.56.64c-.66.79-1.68,1.21-2.84,1.21-2.3,0-3.87-1.57-3.87-3.75s1.53-3.74,3.6-3.74,3.57,1.53,3.57,3.74c0,.08-.01.2-.01.31Zm-6.16-.74h5.23c-.13-1.44-1.18-2.45-2.62-2.45s-2.48,1.01-2.61,2.45Z"/>
    <path class="cls-2" d="m158.35,195.29v4.27h-.99v-4.17c0-1.55-.81-2.35-2.21-2.35-1.58,0-2.58.98-2.58,2.66v3.87h-.99v-7.37h.95v1.36c.53-.9,1.53-1.42,2.8-1.42,1.79,0,3.03,1.04,3.03,3.15Z"/>
    <path class="cls-2" d="m164.93,199.11c-.39.35-.98.52-1.56.52-1.39,0-2.16-.78-2.16-2.14v-4.45h-1.32v-.84h1.32v-1.61h.99v1.61h2.24v.84h-2.24v4.4c0,.87.45,1.34,1.27,1.34.41,0,.81-.13,1.09-.38l.35.71Z"/>
    <path class="cls-2" d="m170.45,192.14v.97c-.08,0-.17-.01-.24-.01-1.54,0-2.48.98-2.48,2.72v3.75h-.99v-7.37h.95v1.44c.46-.98,1.4-1.5,2.76-1.5Z"/>
    <path class="cls-2" d="m178.58,196.18h-6.16c.11,1.54,1.29,2.56,2.9,2.56.9,0,1.69-.32,2.25-.97l.56.64c-.66.79-1.68,1.21-2.84,1.21-2.3,0-3.87-1.57-3.87-3.75s1.53-3.74,3.6-3.74,3.57,1.53,3.57,3.74c0,.08-.01.2-.01.31Zm-6.16-.74h5.23c-.13-1.44-1.18-2.45-2.62-2.45s-2.48,1.01-2.61,2.45Z"/>
    <path class="cls-2" d="m187.44,192.19v6.47c0,2.54-1.25,3.68-3.68,3.68-1.34,0-2.66-.41-3.43-1.13l.5-.76c.7.63,1.77,1.01,2.9,1.01,1.86,0,2.72-.85,2.72-2.68v-.94c-.62.94-1.67,1.43-2.87,1.43-2.1,0-3.7-1.47-3.7-3.59s1.6-3.56,3.7-3.56c1.23,0,2.3.5,2.91,1.47v-1.42h.95Zm-.97,3.5c0-1.6-1.18-2.69-2.8-2.69s-2.79,1.09-2.79,2.69,1.16,2.7,2.79,2.7,2.8-1.11,2.8-2.7Z"/>
    <path class="cls-2" d="m195.79,194.99v4.57h-.95v-1.15c-.45.76-1.32,1.22-2.54,1.22-1.67,0-2.69-.87-2.69-2.14,0-1.13.73-2.09,2.84-2.09h2.34v-.45c0-1.26-.71-1.95-2.09-1.95-.95,0-1.85.34-2.45.87l-.45-.74c.74-.63,1.84-.99,3-.99,1.9,0,2.98.95,2.98,2.86Zm-.99,2.35v-1.21h-2.31c-1.43,0-1.89.56-1.89,1.32,0,.85.69,1.39,1.86,1.39s1.95-.53,2.34-1.5Z"/>
    <path class="cls-2" d="m199.34,198.86c0,.24-.06.42-.2.81l-.59,1.93h-.67l.48-2.03c-.29-.08-.5-.35-.5-.71,0-.43.32-.76.74-.76s.74.34.74.76Z"/>
    <path class="cls-2" d="m37.38,215.66l.73-1.57c.67.43,1.7.73,2.62.73,1.01,0,1.39-.27,1.39-.69,0-1.23-4.55.03-4.55-2.98,0-1.43,1.29-2.44,3.49-2.44,1.04,0,2.19.24,2.9.66l-.73,1.55c-.74-.42-1.48-.56-2.17-.56-.98,0-1.4.31-1.4.7,0,1.29,4.55.04,4.55,3.01,0,1.4-1.3,2.4-3.56,2.4-1.27,0-2.56-.35-3.26-.81Z"/>
    <path class="cls-2" d="m45.28,206.55c0-.69.55-1.22,1.36-1.22s1.36.5,1.36,1.18c0,.73-.55,1.26-1.36,1.26s-1.36-.53-1.36-1.22Zm.27,2.27h2.19v7.54h-2.19v-7.54Z"/>
    <path class="cls-2" d="m57.46,212.04v4.31h-2.19v-3.98c0-1.22-.56-1.78-1.53-1.78-1.05,0-1.81.64-1.81,2.03v3.73h-2.19v-7.54h2.09v.88c.59-.64,1.47-.99,2.49-.99,1.78,0,3.12,1.04,3.12,3.33Z"/>
    <path class="cls-2" d="m63.13,206.55c0-.69.55-1.22,1.36-1.22s1.36.5,1.36,1.18c0,.73-.55,1.26-1.36,1.26s-1.36-.53-1.36-1.22Zm.27,2.27h2.19v7.54h-2.19v-7.54Z"/>
    <path class="cls-2" d="m72.28,208.71v2.02c-.18-.01-.32-.03-.49-.03-1.2,0-2,.66-2,2.1v3.56h-2.19v-7.54h2.09v1c.53-.73,1.43-1.11,2.59-1.11Z"/>
    <path class="cls-2" d="m84.27,212.06v4.3h-2.05v-.94c-.41.69-1.19,1.05-2.3,1.05-1.77,0-2.82-.98-2.82-2.28s.94-2.25,3.24-2.25h1.74c0-.94-.56-1.49-1.74-1.49-.8,0-1.62.27-2.17.7l-.78-1.53c.83-.59,2.05-.91,3.25-.91,2.3,0,3.63,1.06,3.63,3.35Zm-2.19,1.92v-.77h-1.5c-1.02,0-1.34.38-1.34.88,0,.55.46.91,1.23.91.73,0,1.36-.34,1.61-1.02Z"/>
    <path class="cls-2" d="m89.64,212.59c0-2.27,1.75-3.88,4.2-3.88,1.58,0,2.83.69,3.38,1.92l-1.69.91c-.41-.71-1.01-1.04-1.69-1.04-1.11,0-1.98.77-1.98,2.09s.87,2.09,1.98,2.09c.69,0,1.29-.31,1.69-1.04l1.69.92c-.55,1.21-1.79,1.91-3.38,1.91-2.45,0-4.2-1.61-4.2-3.88Z"/>
    <path class="cls-2" d="m97.82,212.59c0-2.27,1.75-3.88,4.15-3.88s4.13,1.61,4.13,3.88-1.74,3.88-4.13,3.88-4.15-1.61-4.15-3.88Zm6.07,0c0-1.3-.83-2.09-1.92-2.09s-1.93.78-1.93,2.09.84,2.09,1.93,2.09,1.92-.78,1.92-2.09Z"/>
    <path class="cls-2" d="m120.28,212.04v4.31h-2.19v-3.98c0-1.22-.55-1.78-1.43-1.78-.98,0-1.67.63-1.67,1.97v3.78h-2.19v-3.98c0-1.22-.52-1.78-1.43-1.78-.97,0-1.65.63-1.65,1.97v3.78h-2.19v-7.54h2.09v.87c.56-.64,1.4-.98,2.37-.98,1.05,0,1.95.41,2.48,1.23.6-.77,1.58-1.23,2.72-1.23,1.79,0,3.08,1.04,3.08,3.33Z"/>
    <path class="cls-2" d="m130.44,212.59c0,2.37-1.64,3.88-3.75,3.88-.94,0-1.71-.29-2.27-.91v3.52h-2.19v-10.25h2.09v.87c.55-.66,1.36-.98,2.37-.98,2.12,0,3.75,1.51,3.75,3.88Zm-2.21,0c0-1.3-.83-2.09-1.92-2.09s-1.92.78-1.92,2.09.83,2.09,1.92,2.09,1.92-.78,1.92-2.09Z"/>
    <path class="cls-2" d="m136.57,208.71v2.02c-.18-.01-.32-.03-.49-.03-1.2,0-2,.66-2,2.1v3.56h-2.19v-7.54h2.09v1c.53-.73,1.43-1.11,2.59-1.11Z"/>
    <path class="cls-2" d="m144.5,212.06v4.3h-2.05v-.94c-.41.69-1.19,1.05-2.3,1.05-1.77,0-2.82-.98-2.82-2.28s.94-2.25,3.24-2.25h1.74c0-.94-.56-1.49-1.74-1.49-.8,0-1.62.27-2.17.7l-.78-1.53c.83-.59,2.05-.91,3.25-.91,2.3,0,3.63,1.06,3.63,3.35Zm-2.19,1.92v-.77h-1.5c-1.02,0-1.34.38-1.34.88,0,.55.46.91,1.23.91.73,0,1.36-.34,1.61-1.02Z"/>
    <path class="cls-2" d="m151.15,208.71v2.02c-.18-.01-.32-.03-.49-.03-1.2,0-2,.66-2,2.1v3.56h-2.19v-7.54h2.09v1c.53-.73,1.43-1.11,2.59-1.11Z"/>
    <path class="cls-2" d="m155.9,212.59c0-2.27,1.75-3.88,4.2-3.88,1.58,0,2.83.69,3.38,1.92l-1.69.91c-.41-.71-1.01-1.04-1.69-1.04-1.11,0-1.98.77-1.98,2.09s.87,2.09,1.98,2.09c.69,0,1.29-.31,1.69-1.04l1.69.92c-.55,1.21-1.79,1.91-3.38,1.91-2.45,0-4.2-1.61-4.2-3.88Z"/>
    <path class="cls-2" d="m171.41,212.06v4.3h-2.05v-.94c-.41.69-1.19,1.05-2.3,1.05-1.77,0-2.82-.98-2.82-2.28s.94-2.25,3.24-2.25h1.74c0-.94-.56-1.49-1.74-1.49-.8,0-1.62.27-2.17.7l-.78-1.53c.83-.59,2.05-.91,3.25-.91,2.3,0,3.63,1.06,3.63,3.35Zm-2.19,1.92v-.77h-1.5c-1.02,0-1.34.38-1.34.88,0,.55.46.91,1.23.91.73,0,1.36-.34,1.61-1.02Z"/>
    <path class="cls-2" d="m181.14,205.97v10.39h-2.09v-.87c-.55.66-1.34.98-2.35.98-2.13,0-3.77-1.51-3.77-3.88s1.64-3.88,3.77-3.88c.92,0,1.71.29,2.26.91v-3.66h2.19Zm-2.14,6.63c0-1.3-.84-2.09-1.92-2.09s-1.93.78-1.93,2.09.84,2.09,1.93,2.09,1.92-.78,1.92-2.09Z"/>
    <path class="cls-2" d="m189.82,212.06v4.3h-2.05v-.94c-.41.69-1.19,1.05-2.3,1.05-1.77,0-2.82-.98-2.82-2.28s.94-2.25,3.24-2.25h1.74c0-.94-.56-1.49-1.74-1.49-.8,0-1.62.27-2.17.7l-.78-1.53c.83-.59,2.05-.91,3.25-.91,2.3,0,3.63,1.06,3.63,3.35Zm-2.19,1.92v-.77h-1.5c-1.02,0-1.34.38-1.34.88,0,.55.46.91,1.23.91.73,0,1.36-.34,1.61-1.02Z"/>
    <path class="cls-2" d="m203.42,205.97v10.39h-2.09v-.87c-.55.66-1.34.98-2.35.98-2.13,0-3.77-1.51-3.77-3.88s1.64-3.88,3.77-3.88c.92,0,1.71.29,2.26.91v-3.66h2.19Zm-2.14,6.63c0-1.3-.84-2.09-1.92-2.09s-1.93.78-1.93,2.09.84,2.09,1.93,2.09,1.92-.78,1.92-2.09Z"/>
    <path class="cls-2" d="m207.14,205.84h2.35l-2.54,2.02h-1.71l1.89-2.02Zm-1.71,2.98h2.19v7.54h-2.19v-7.54Z"/>
    <path class="cls-2" d="m216.32,212.06v4.3h-2.05v-.94c-.41.69-1.19,1.05-2.3,1.05-1.77,0-2.82-.98-2.82-2.28s.94-2.25,3.24-2.25h1.74c0-.94-.56-1.49-1.74-1.49-.8,0-1.62.27-2.17.7l-.78-1.53c.83-.59,2.05-.91,3.25-.91,2.3,0,3.63,1.06,3.63,3.35Zm-2.19,1.92v-.77h-1.5c-1.02,0-1.34.38-1.34.88,0,.55.46.91,1.23.91.73,0,1.36-.34,1.61-1.02Z"/>
    <path class="cls-2" d="m217.75,215.1c0-.81.6-1.34,1.36-1.34s1.36.53,1.36,1.34-.6,1.37-1.36,1.37-1.36-.57-1.36-1.37Z"/>
  </g>
  <rect class="cls-5" x="7.82" y="238.47" width="242.58" height="73.37" rx="16.2" ry="16.2"/>
  <g>
    <path class="cls-2" d="m70.65,258.64c0-2.96,2.27-5.07,5.32-5.07,1.69,0,3.11.62,4.03,1.74l-1.46,1.34c-.66-.76-1.48-1.15-2.47-1.15-1.83,0-3.14,1.29-3.14,3.14s1.3,3.14,3.14,3.14c.98,0,1.81-.39,2.47-1.16l1.46,1.34c-.92,1.13-2.34,1.75-4.05,1.75-3.04,0-5.31-2.12-5.31-5.07Z"/>
    <path class="cls-2" d="m80.55,259.78c0-2.27,1.75-3.88,4.15-3.88s4.13,1.61,4.13,3.88-1.74,3.88-4.13,3.88-4.15-1.61-4.15-3.88Zm6.07,0c0-1.3-.83-2.09-1.92-2.09s-1.93.78-1.93,2.09.84,2.09,1.93,2.09,1.92-.79,1.92-2.09Z"/>
    <path class="cls-2" d="m103.01,259.23v4.31h-2.19v-3.98c0-1.22-.55-1.78-1.43-1.78-.98,0-1.67.63-1.67,1.98v3.78h-2.19v-3.98c0-1.22-.52-1.78-1.43-1.78-.97,0-1.65.63-1.65,1.98v3.78h-2.19v-7.54h2.09v.87c.56-.64,1.4-.98,2.37-.98,1.05,0,1.95.41,2.48,1.23.6-.77,1.58-1.23,2.72-1.23,1.79,0,3.08,1.04,3.08,3.33Z"/>
    <path class="cls-2" d="m104.7,253.74c0-.69.55-1.22,1.36-1.22s1.36.5,1.36,1.18c0,.73-.55,1.26-1.36,1.26s-1.36-.53-1.36-1.22Zm.27,2.27h2.19v7.54h-2.19v-7.54Z"/>
    <path class="cls-2" d="m116.85,253.15v10.39h-2.09v-.87c-.55.66-1.34.98-2.35.98-2.13,0-3.77-1.51-3.77-3.88s1.64-3.88,3.77-3.88c.92,0,1.71.29,2.26.91v-3.66h2.19Zm-2.14,6.62c0-1.3-.84-2.09-1.92-2.09s-1.93.78-1.93,2.09.84,2.09,1.93,2.09,1.92-.79,1.92-2.09Z"/>
    <path class="cls-2" d="m125.53,259.25v4.3h-2.05v-.94c-.41.69-1.19,1.05-2.3,1.05-1.77,0-2.82-.98-2.82-2.28s.94-2.25,3.24-2.25h1.74c0-.94-.56-1.48-1.74-1.48-.8,0-1.62.27-2.17.7l-.78-1.53c.83-.59,2.05-.91,3.25-.91,2.3,0,3.63,1.06,3.63,3.35Zm-2.19,1.92v-.77h-1.5c-1.02,0-1.34.38-1.34.88,0,.55.46.91,1.23.91.73,0,1.36-.34,1.61-1.02Z"/>
    <path class="cls-2" d="m138.95,256.01l-3.18,7.54h-2.26l-3.17-7.54h2.25l2.09,5.13,2.16-5.13h2.1Z"/>
    <path class="cls-2" d="m146.25,259.25v4.3h-2.05v-.94c-.41.69-1.19,1.05-2.3,1.05-1.77,0-2.82-.98-2.82-2.28s.94-2.25,3.24-2.25h1.74c0-.94-.56-1.48-1.74-1.48-.8,0-1.62.27-2.17.7l-.78-1.53c.83-.59,2.05-.91,3.25-.91,2.3,0,3.63,1.06,3.63,3.35Zm-2.19,1.92v-.77h-1.5c-1.02,0-1.34.38-1.34.88,0,.55.46.91,1.23.91.73,0,1.36-.34,1.61-1.02Z"/>
    <path class="cls-2" d="m152.9,255.9v2.02c-.18-.01-.32-.03-.49-.03-1.2,0-2,.66-2,2.1v3.56h-2.19v-7.54h2.09v.99c.53-.73,1.43-1.11,2.59-1.11Z"/>
    <path class="cls-2" d="m153.94,253.74c0-.69.55-1.22,1.36-1.22s1.36.5,1.36,1.18c0,.73-.55,1.26-1.36,1.26s-1.36-.53-1.36-1.22Zm.27,2.27h2.19v7.54h-2.19v-7.54Z"/>
    <path class="cls-2" d="m165.08,259.25v4.3h-2.05v-.94c-.41.69-1.19,1.05-2.3,1.05-1.77,0-2.82-.98-2.82-2.28s.94-2.25,3.24-2.25h1.74c0-.94-.56-1.48-1.74-1.48-.8,0-1.62.27-2.17.7l-.78-1.53c.83-.59,2.05-.91,3.25-.91,2.3,0,3.63,1.06,3.63,3.35Zm-2.19,1.92v-.77h-1.5c-1.02,0-1.34.38-1.34.88,0,.55.46.91,1.23.91.73,0,1.36-.34,1.61-1.02Z"/>
    <path class="cls-2" d="m174.81,253.15v10.39h-2.09v-.87c-.55.66-1.34.98-2.35.98-2.13,0-3.77-1.51-3.77-3.88s1.64-3.88,3.77-3.88c.92,0,1.71.29,2.26.91v-3.66h2.19Zm-2.14,6.62c0-1.3-.84-2.09-1.92-2.09s-1.93.78-1.93,2.09.84,2.09,1.93,2.09,1.92-.79,1.92-2.09Z"/>
    <path class="cls-2" d="m183.49,259.25v4.3h-2.05v-.94c-.41.69-1.19,1.05-2.3,1.05-1.77,0-2.82-.98-2.82-2.28s.94-2.25,3.24-2.25h1.74c0-.94-.56-1.48-1.74-1.48-.8,0-1.62.27-2.17.7l-.78-1.53c.83-.59,2.05-.91,3.25-.91,2.3,0,3.63,1.06,3.63,3.35Zm-2.19,1.92v-.77h-1.5c-1.02,0-1.34.38-1.34.88,0,.55.46.91,1.23.91.73,0,1.36-.34,1.61-1.02Z"/>
    <path class="cls-2" d="m187.65,262.29c0,.36-.06.63-.38,1.4l-.8,2.02h-1.39l.62-2.23c-.46-.18-.76-.62-.76-1.19,0-.81.59-1.34,1.36-1.34s1.34.55,1.34,1.34Z"/>
    <path class="cls-2" d="m46.03,279.65l.73-1.57c.67.43,1.69.73,2.62.73,1.01,0,1.39-.27,1.39-.69,0-1.23-4.55.03-4.55-2.98,0-1.43,1.29-2.44,3.49-2.44,1.04,0,2.19.24,2.9.66l-.73,1.55c-.74-.42-1.48-.56-2.17-.56-.98,0-1.4.31-1.4.7,0,1.29,4.55.04,4.55,3.01,0,1.4-1.3,2.4-3.56,2.4-1.27,0-2.56-.35-3.26-.81Z"/>
    <path class="cls-2" d="m60.86,276.05v4.3h-2.05v-.94c-.41.69-1.19,1.05-2.3,1.05-1.77,0-2.82-.98-2.82-2.28s.94-2.25,3.24-2.25h1.74c0-.94-.56-1.49-1.74-1.49-.8,0-1.62.27-2.17.7l-.78-1.53c.83-.59,2.05-.91,3.25-.91,2.3,0,3.63,1.06,3.63,3.35Zm-2.19,1.92v-.77h-1.5c-1.02,0-1.34.38-1.34.88,0,.55.46.91,1.23.91.73,0,1.36-.34,1.61-1.02Z"/>
    <path class="cls-2" d="m70.54,276.03v4.31h-2.19v-3.98c0-1.22-.56-1.78-1.53-1.78-1.05,0-1.81.64-1.81,2.03v3.73h-2.19v-7.54h2.09v.88c.59-.64,1.47-.99,2.49-.99,1.78,0,3.12,1.04,3.12,3.33Z"/>
    <path class="cls-2" d="m79.17,276.05v4.3h-2.05v-.94c-.41.69-1.19,1.05-2.3,1.05-1.77,0-2.82-.98-2.82-2.28s.94-2.25,3.24-2.25h1.74c0-.94-.56-1.49-1.74-1.49-.8,0-1.62.27-2.17.7l-.78-1.53c.83-.59,2.05-.91,3.25-.91,2.3,0,3.63,1.06,3.63,3.35Zm-2.19,1.92v-.77h-1.5c-1.02,0-1.34.38-1.34.88,0,.55.46.91,1.23.91.73,0,1.36-.34,1.61-1.02Z"/>
    <path class="cls-2" d="m92.59,272.81l-3.4,8c-.73,1.82-1.77,2.37-3.12,2.37-.77,0-1.61-.25-2.1-.69l.8-1.55c.34.29.8.48,1.23.48.6,0,.94-.27,1.23-.94l.03-.07-3.26-7.59h2.25l2.12,5.11,2.13-5.11h2.1Z"/>
    <path class="cls-2" d="m104.78,277.19h-5.7c.21.94,1.01,1.51,2.16,1.51.8,0,1.37-.24,1.89-.73l1.16,1.26c-.7.8-1.75,1.22-3.11,1.22-2.61,0-4.3-1.64-4.3-3.88s1.72-3.88,4.02-3.88,3.92,1.48,3.92,3.91c0,.17-.03.41-.04.59Zm-5.73-1.27h3.71c-.15-.95-.87-1.57-1.85-1.57s-1.71.6-1.86,1.57Z"/>
    <path class="cls-2" d="m113.92,272.81v10.25h-2.19v-3.52c-.55.62-1.33.91-2.26.91-2.13,0-3.77-1.51-3.77-3.88s1.64-3.88,3.77-3.88c1.01,0,1.81.32,2.35.98v-.87h2.09Zm-2.14,3.77c0-1.3-.84-2.09-1.92-2.09s-1.93.78-1.93,2.09.84,2.09,1.93,2.09,1.92-.78,1.92-2.09Z"/>
    <path class="cls-2" d="m123.53,272.81v7.54h-2.07v-.9c-.57.66-1.41,1.01-2.34,1.01-1.89,0-3.22-1.06-3.22-3.39v-4.26h2.19v3.94c0,1.26.56,1.82,1.53,1.82s1.74-.64,1.74-2.03v-3.73h2.19Z"/>
    <path class="cls-2" d="m125.29,270.54c0-.69.55-1.22,1.36-1.22s1.36.5,1.36,1.18c0,.73-.55,1.26-1.36,1.26s-1.36-.53-1.36-1.22Zm.27,2.27h2.19v7.54h-2.19v-7.54Z"/>
    <path class="cls-2" d="m129.77,269.95h2.19v10.39h-2.19v-10.39Z"/>
    <path class="cls-2" d="m133.71,270.54c0-.69.55-1.22,1.36-1.22s1.36.5,1.36,1.18c0,.73-.55,1.26-1.36,1.26s-1.36-.53-1.36-1.22Zm.27,2.27h2.19v7.54h-2.19v-7.54Z"/>
    <path class="cls-2" d="m146.4,276.58c0,2.37-1.64,3.88-3.75,3.88-1.01,0-1.82-.32-2.37-.98v.87h-2.09v-10.39h2.19v3.66c.56-.62,1.33-.91,2.27-.91,2.12,0,3.75,1.51,3.75,3.88Zm-2.21,0c0-1.3-.83-2.09-1.92-2.09s-1.92.78-1.92,2.09.83,2.09,1.92,2.09,1.92-.78,1.92-2.09Z"/>
    <path class="cls-2" d="m152.53,272.7v2.02c-.18-.01-.32-.03-.49-.03-1.2,0-2,.66-2,2.1v3.56h-2.19v-7.54h2.09v1c.53-.73,1.43-1.11,2.59-1.11Z"/>
    <path class="cls-2" d="m160.46,276.05v4.3h-2.05v-.94c-.41.69-1.19,1.05-2.3,1.05-1.77,0-2.82-.98-2.82-2.28s.94-2.25,3.24-2.25h1.74c0-.94-.56-1.49-1.74-1.49-.8,0-1.62.27-2.17.7l-.78-1.53c.83-.59,2.05-.91,3.25-.91,2.3,0,3.63,1.06,3.63,3.35Zm-2.19,1.92v-.77h-1.5c-1.02,0-1.34.38-1.34.88,0,.55.46.91,1.23.91.73,0,1.36-.34,1.61-1.02Z"/>
    <path class="cls-2" d="m170.19,269.95v10.39h-2.09v-.87c-.55.66-1.34.98-2.35.98-2.13,0-3.77-1.51-3.77-3.88s1.64-3.88,3.77-3.88c.92,0,1.71.29,2.26.91v-3.66h2.19Zm-2.14,6.63c0-1.3-.84-2.09-1.92-2.09s-1.93.78-1.93,2.09.84,2.09,1.93,2.09,1.92-.78,1.92-2.09Z"/>
    <path class="cls-2" d="m178.87,276.05v4.3h-2.05v-.94c-.41.69-1.19,1.05-2.3,1.05-1.77,0-2.82-.98-2.82-2.28s.94-2.25,3.24-2.25h1.74c0-.94-.56-1.49-1.74-1.49-.8,0-1.62.27-2.17.7l-.78-1.53c.83-.59,2.05-.91,3.25-.91,2.3,0,3.63,1.06,3.63,3.35Zm-2.19,1.92v-.77h-1.5c-1.02,0-1.34.38-1.34.88,0,.55.46.91,1.23.91.73,0,1.36-.34,1.61-1.02Z"/>
    <path class="cls-2" d="m182.07,279.65c0,.24-.06.42-.2.81l-.59,1.93h-.67l.48-2.03c-.29-.08-.5-.35-.5-.71,0-.43.32-.76.74-.76s.74.34.74.76Z"/>
    <path class="cls-2" d="m187.11,276.66c0-2.2,1.6-3.74,3.8-3.74,1.25,0,2.3.49,2.89,1.46l-.74.5c-.5-.74-1.29-1.09-2.14-1.09-1.61,0-2.79,1.15-2.79,2.87s1.18,2.87,2.79,2.87c.85,0,1.64-.34,2.14-1.08l.74.5c-.59.95-1.64,1.46-2.89,1.46-2.2,0-3.8-1.55-3.8-3.75Z"/>
    <path class="cls-2" d="m194.86,276.66c0-2.19,1.6-3.74,3.75-3.74s3.74,1.55,3.74,3.74-1.58,3.75-3.74,3.75-3.75-1.57-3.75-3.75Zm6.49,0c0-1.72-1.16-2.87-2.73-2.87s-2.75,1.15-2.75,2.87,1.18,2.87,2.75,2.87,2.73-1.15,2.73-2.87Z"/>
    <path class="cls-2" d="m211.16,276.07v4.27h-.99v-4.17c0-1.55-.81-2.35-2.21-2.35-1.58,0-2.58.98-2.58,2.66v3.87h-.99v-7.37h.95v1.36c.53-.9,1.53-1.42,2.8-1.42,1.79,0,3.03,1.04,3.03,3.15Z"/>
    <path class="cls-2" d="m65.98,293.46c0,2.24-1.57,3.75-3.67,3.75-1.18,0-2.19-.5-2.8-1.46v4.1h-.99v-10.09h.95v1.46c.6-.98,1.62-1.51,2.84-1.51,2.1,0,3.67,1.51,3.67,3.74Zm-.99,0c0-1.71-1.19-2.87-2.75-2.87s-2.75,1.16-2.75,2.87,1.18,2.87,2.75,2.87,2.75-1.15,2.75-2.87Z"/>
    <path class="cls-2" d="m71.72,289.72v.97c-.08,0-.17-.01-.24-.01-1.54,0-2.48.98-2.48,2.72v3.75h-.99v-7.37h.95v1.44c.46-.98,1.4-1.5,2.76-1.5Z"/>
    <path class="cls-2" d="m72.7,293.46c0-2.19,1.6-3.74,3.75-3.74s3.74,1.55,3.74,3.74-1.58,3.75-3.74,3.75-3.75-1.57-3.75-3.75Zm6.49,0c0-1.72-1.16-2.87-2.73-2.87s-2.75,1.15-2.75,2.87,1.18,2.87,2.75,2.87,2.73-1.15,2.73-2.87Z"/>
    <path class="cls-2" d="m88.94,286.75v10.39h-.95v-1.46c-.6.99-1.62,1.53-2.84,1.53-2.1,0-3.67-1.53-3.67-3.75s1.57-3.74,3.67-3.74c1.18,0,2.19.5,2.8,1.46v-4.43h.99Zm-.98,6.71c0-1.72-1.18-2.87-2.73-2.87s-2.75,1.15-2.75,2.87,1.18,2.87,2.75,2.87,2.73-1.15,2.73-2.87Z"/>
    <path class="cls-2" d="m98.35,289.78v7.37h-.95v-1.34c-.52.9-1.47,1.42-2.65,1.42-1.88,0-3.11-1.05-3.11-3.17v-4.27h.99v4.17c0,1.57.81,2.37,2.21,2.37,1.54,0,2.51-.99,2.51-2.68v-3.87h.99Z"/>
    <path class="cls-2" d="m100.39,293.46c0-2.2,1.6-3.74,3.8-3.74,1.25,0,2.3.49,2.89,1.46l-.74.5c-.5-.74-1.29-1.09-2.14-1.09-1.61,0-2.79,1.15-2.79,2.87s1.18,2.87,2.79,2.87c.85,0,1.64-.34,2.14-1.08l.74.5c-.59.95-1.64,1.46-2.89,1.46-2.2,0-3.8-1.55-3.8-3.75Z"/>
    <path class="cls-2" d="m112.97,296.7c-.39.35-.98.52-1.56.52-1.39,0-2.16-.78-2.16-2.14v-4.45h-1.32v-.84h1.32v-1.61h.99v1.61h2.24v.84h-2.24v4.4c0,.87.45,1.34,1.27,1.34.41,0,.81-.13,1.09-.38l.35.71Z"/>
    <path class="cls-2" d="m113.77,293.46c0-2.19,1.6-3.74,3.75-3.74s3.74,1.55,3.74,3.74-1.58,3.75-3.74,3.75-3.75-1.57-3.75-3.75Zm6.49,0c0-1.72-1.16-2.87-2.73-2.87s-2.75,1.15-2.75,2.87,1.18,2.87,2.75,2.87,2.73-1.15,2.73-2.87Z"/>
    <path class="cls-2" d="m133.68,286.75v10.39h-.95v-1.46c-.6.99-1.62,1.53-2.84,1.53-2.1,0-3.67-1.53-3.67-3.75s1.57-3.74,3.67-3.74c1.18,0,2.19.5,2.8,1.46v-4.43h.99Zm-.98,6.71c0-1.72-1.18-2.87-2.73-2.87s-2.75,1.15-2.75,2.87,1.18,2.87,2.75,2.87,2.73-1.15,2.73-2.87Z"/>
    <path class="cls-2" d="m142.87,293.77h-6.16c.11,1.54,1.29,2.56,2.9,2.56.9,0,1.69-.32,2.25-.97l.56.64c-.66.79-1.68,1.21-2.84,1.21-2.3,0-3.87-1.57-3.87-3.75s1.53-3.74,3.6-3.74,3.57,1.53,3.57,3.74c0,.08-.01.2-.01.31Zm-6.16-.74h5.23c-.13-1.44-1.18-2.45-2.62-2.45s-2.48,1.01-2.61,2.45Z"/>
    <path class="cls-2" d="m147.83,293.46c0-2.2,1.6-3.74,3.8-3.74,1.25,0,2.3.49,2.89,1.46l-.74.5c-.5-.74-1.29-1.09-2.14-1.09-1.61,0-2.79,1.15-2.79,2.87s1.18,2.87,2.79,2.87c.85,0,1.64-.34,2.14-1.08l.74.5c-.59.95-1.64,1.46-2.89,1.46-2.2,0-3.8-1.55-3.8-3.75Z"/>
    <path class="cls-2" d="m162.02,292.58v4.57h-.95v-1.15c-.45.76-1.32,1.22-2.54,1.22-1.67,0-2.69-.87-2.69-2.14,0-1.13.73-2.09,2.84-2.09h2.34v-.45c0-1.26-.71-1.95-2.09-1.95-.95,0-1.85.34-2.45.87l-.45-.74c.74-.63,1.83-.99,3-.99,1.9,0,2.98.95,2.98,2.86Zm-.99,2.35v-1.21h-2.31c-1.43,0-1.89.56-1.89,1.32,0,.85.69,1.39,1.86,1.39s1.95-.53,2.34-1.5Z"/>
    <path class="cls-2" d="m164.72,286.75h.99v10.39h-.99v-10.39Z"/>
    <path class="cls-2" d="m168.26,287.45c0-.38.32-.7.73-.7s.73.31.73.69c0,.41-.31.73-.73.73s-.73-.32-.73-.71Zm.22,2.33h.99v7.37h-.99v-7.37Z"/>
    <path class="cls-2" d="m178.97,286.75v10.39h-.95v-1.46c-.6.99-1.62,1.53-2.84,1.53-2.1,0-3.67-1.53-3.67-3.75s1.57-3.74,3.67-3.74c1.18,0,2.19.5,2.8,1.46v-4.43h.99Zm-.98,6.71c0-1.72-1.18-2.87-2.73-2.87s-2.75,1.15-2.75,2.87,1.18,2.87,2.75,2.87,2.73-1.15,2.73-2.87Z"/>
    <path class="cls-2" d="m187.3,292.58v4.57h-.95v-1.15c-.45.76-1.32,1.22-2.54,1.22-1.67,0-2.69-.87-2.69-2.14,0-1.13.73-2.09,2.84-2.09h2.34v-.45c0-1.26-.71-1.95-2.09-1.95-.95,0-1.85.34-2.45.87l-.45-.74c.74-.63,1.84-.99,3-.99,1.9,0,2.98.95,2.98,2.86Zm-.99,2.35v-1.21h-2.31c-1.43,0-1.89.56-1.89,1.32,0,.85.69,1.39,1.86,1.39s1.95-.53,2.34-1.5Z"/>
    <path class="cls-2" d="m196.75,286.75v10.39h-.95v-1.46c-.6.99-1.62,1.53-2.84,1.53-2.1,0-3.67-1.53-3.67-3.75s1.57-3.74,3.67-3.74c1.18,0,2.19.5,2.8,1.46v-4.43h.99Zm-.98,6.71c0-1.72-1.18-2.87-2.73-2.87s-2.75,1.15-2.75,2.87,1.18,2.87,2.75,2.87,2.73-1.15,2.73-2.87Z"/>
    <path class="cls-2" d="m198.87,296.45c0-.43.34-.76.74-.76s.76.32.76.76-.35.77-.76.77-.74-.34-.74-.77Z"/>
  </g>
  <path class="cls-1" d="m431.55,256.77c-10.16,0-18.43,8.27-18.43,18.43s8.27,18.43,18.43,18.43,18.42-8.27,18.42-18.43-8.27-18.43-18.42-18.43Zm9.59,12.25l-11.91,14.17c-.13.16-.29.28-.48.37s-.38.13-.59.14h-.02c-.2,0-.39-.04-.58-.12-.18-.08-.34-.2-.48-.35l-5.1-5.67c-.13-.14-.23-.3-.3-.48-.07-.18-.1-.37-.09-.55,0-.19.05-.37.13-.54.08-.17.19-.32.33-.45.14-.13.3-.22.48-.29.18-.06.37-.09.56-.08.19.01.37.06.54.15.17.08.32.2.44.35l4.01,4.46,10.86-12.93c.24-.28.59-.46.96-.49.37-.03.74.09,1.02.33.29.24.46.58.5.95.03.37-.08.74-.31,1.03Z"/>
</svg>